<?xml version="1.0" encoding="utf-8"?>
<!-- Generator: Adobe Illustrator 24.0.0, SVG Export Plug-In . SVG Version: 6.00 Build 0)  -->
<svg version="1.1" id="Ebene_1" xmlns="http://www.w3.org/2000/svg" xmlns:xlink="http://www.w3.org/1999/xlink" x="0px" y="0px"
	 viewBox="0 0 1400 689.9" style="enable-background:new 0 0 1400 689.9;" xml:space="preserve">
<style type="text/css">
	.st0{fill:#FFFFFF;}
	.st1{fill:#E8EFF5;}
	.st2{enable-background:new    ;}
	.st3{fill:#003670;}
	.st4{fill:none;stroke:#003670;stroke-width:0.5;stroke-miterlimit:10;}
	.st5{fill:#D1597C;}
	.st6{fill:#4E90DD;}
	.st7{fill:none;stroke:#4E90DD;stroke-width:4.5;stroke-linecap:round;stroke-miterlimit:10;}
	.st8{fill:none;stroke:#D1597C;stroke-width:9;stroke-miterlimit:10;}
	.st9{fill:none;stroke:#D1597C;stroke-width:4.5;stroke-linecap:round;stroke-miterlimit:10;}
	.st10{fill:none;stroke:#D1597C;stroke-width:4.5;stroke-linecap:round;stroke-miterlimit:10;stroke-dasharray:1.9882,9.9409;}
	.st11{fill:#FFFFFF;stroke:#003670;stroke-width:4.5;stroke-miterlimit:10;}
	.st12{fill:none;stroke:#003670;stroke-width:4.5;stroke-linecap:round;stroke-miterlimit:10;}
	.st13{fill:none;stroke:#003670;stroke-width:4.5;stroke-miterlimit:10;}
	.st14{fill-rule:evenodd;clip-rule:evenodd;fill:#FFFFFF;stroke:#003670;stroke-width:4.5;stroke-miterlimit:10;}
</style>
<g id="Hintergrund">
	<rect y="0" class="st0" width="1400" height="689.8"/>
	<path class="st1" d="M384.9,344.1h-290c-2.8,0-5-2.2-5-5V74.9c0-2.8,2.2-5,5-5h290c2.8,0,5,2.2,5,5v264.1
		C389.9,341.8,387.6,344.1,384.9,344.1z"/>
	<path class="st1" d="M1305.1,344.1h-290c-2.8,0-5-2.2-5-5V74.9c0-2.8,2.2-5,5-5h290c2.8,0,5,2.2,5,5v264.1
		C1310.1,341.8,1307.9,344.1,1305.1,344.1z"/>
	<path class="st1" d="M984.9,344.1H415c-2.8,0-5-2.2-5-5V74.9c0-2.8,2.2-5,5-5h570c2.8,0,5,2.2,5,5v264.1
		C989.9,341.8,987.7,344.1,984.9,344.1z"/>
	<g>
		<g class="st2">
			<path class="st3" d="M178.3,113V92.5h4.3V113H178.3z"/>
			<path class="st3" d="M201.9,113h-4.3v-9.2c0-1.1-0.2-2-0.6-2.5c-0.4-0.6-1-0.8-1.9-0.8c-1.2,0-2.1,0.4-2.6,1.2
				c-0.5,0.8-0.8,2.1-0.8,4v7.4h-4.3V97.4h3.3l0.6,2h0.2c0.5-0.8,1.1-1.3,2-1.7c0.8-0.4,1.8-0.6,2.9-0.6c1.8,0,3.2,0.5,4.1,1.5
				c0.9,1,1.4,2.4,1.4,4.3V113z"/>
			<path class="st3" d="M212.9,109.9c0.7,0,1.6-0.2,2.7-0.5v3.2c-1.1,0.5-2.4,0.7-3.9,0.7c-1.7,0-3-0.4-3.7-1.3
				c-0.8-0.9-1.2-2.2-1.2-3.9v-7.6h-2v-1.8l2.4-1.4l1.2-3.3h2.7v3.3h4.4v3.2h-4.4v7.6c0,0.6,0.2,1.1,0.5,1.3
				C211.9,109.8,212.4,109.9,212.9,109.9z"/>
			<path class="st3" d="M225.9,113.3c-2.5,0-4.5-0.7-5.9-2.1c-1.4-1.4-2.1-3.4-2.1-5.9c0-2.6,0.7-4.7,2-6.1c1.3-1.4,3.1-2.2,5.4-2.2
				c2.2,0,3.9,0.6,5.2,1.9c1.2,1.3,1.8,3,1.8,5.2v2.1h-10.1c0,1.2,0.4,2.2,1.1,2.8c0.7,0.7,1.6,1,2.8,1c0.9,0,1.8-0.1,2.7-0.3
				s1.7-0.5,2.6-0.9v3.3c-0.7,0.4-1.5,0.7-2.4,0.8C228.1,113.2,227.1,113.3,225.9,113.3z M225.3,100.1c-0.9,0-1.6,0.3-2.1,0.9
				c-0.5,0.6-0.8,1.4-0.9,2.4h6c0-1.1-0.3-1.9-0.8-2.4C226.9,100.4,226.2,100.1,225.3,100.1z"/>
			<path class="st3" d="M244.5,97.1c0.6,0,1.1,0,1.4,0.1l-0.3,4c-0.3-0.1-0.8-0.1-1.3-0.1c-1.4,0-2.4,0.4-3.2,1.1
				c-0.8,0.7-1.1,1.7-1.1,2.9v8h-4.3V97.4h3.2l0.6,2.6h0.2c0.5-0.9,1.1-1.6,2-2.1C242.6,97.3,243.5,97.1,244.5,97.1z"/>
			<path class="st3" d="M263.2,113H259v-9.2c0-1.1-0.2-2-0.6-2.5c-0.4-0.6-1-0.8-1.9-0.8c-1.2,0-2.1,0.4-2.6,1.2
				c-0.5,0.8-0.8,2.1-0.8,4v7.4h-4.3V97.4h3.3l0.6,2h0.2c0.5-0.8,1.1-1.3,2-1.7c0.8-0.4,1.8-0.6,2.9-0.6c1.8,0,3.2,0.5,4.1,1.5
				c0.9,1,1.4,2.4,1.4,4.3V113z"/>
			<path class="st3" d="M274.7,113.3c-2.5,0-4.5-0.7-5.9-2.1c-1.4-1.4-2.1-3.4-2.1-5.9c0-2.6,0.7-4.7,2-6.1c1.3-1.4,3.1-2.2,5.4-2.2
				c2.2,0,3.9,0.6,5.2,1.9c1.2,1.3,1.8,3,1.8,5.2v2.1H271c0,1.2,0.4,2.2,1.1,2.8c0.7,0.7,1.6,1,2.8,1c0.9,0,1.8-0.1,2.7-0.3
				s1.7-0.5,2.6-0.9v3.3c-0.7,0.4-1.5,0.7-2.4,0.8C277,113.2,275.9,113.3,274.7,113.3z M274.1,100.1c-0.9,0-1.6,0.3-2.1,0.9
				c-0.5,0.6-0.8,1.4-0.9,2.4h6c0-1.1-0.3-1.9-0.8-2.4C275.7,100.4,275,100.1,274.1,100.1z"/>
			<path class="st3" d="M291.2,109.9c0.7,0,1.6-0.2,2.7-0.5v3.2c-1.1,0.5-2.4,0.7-3.9,0.7c-1.7,0-3-0.4-3.7-1.3
				c-0.8-0.9-1.2-2.2-1.2-3.9v-7.6h-2v-1.8l2.4-1.4l1.2-3.3h2.7v3.3h4.4v3.2h-4.4v7.6c0,0.6,0.2,1.1,0.5,1.3
				C290.2,109.8,290.6,109.9,291.2,109.9z"/>
			<path class="st3" d="M295.7,107.1v-3.5h7.5v3.5H295.7z"/>
		</g>
		<g class="st2">
			<path class="st3" d="M175,147.7l-0.8-2.1h-0.1c-0.7,0.9-1.5,1.5-2.2,1.9c-0.8,0.4-1.8,0.5-3,0.5c-1.5,0-2.7-0.4-3.6-1.3
				c-0.9-0.9-1.3-2.1-1.3-3.7c0-1.7,0.6-2.9,1.7-3.7c1.2-0.8,2.9-1.2,5.3-1.3l2.7-0.1v-0.7c0-1.6-0.8-2.4-2.4-2.4
				c-1.3,0-2.7,0.4-4.4,1.1l-1.4-2.9c1.8-0.9,3.8-1.4,6-1.4c2.1,0,3.7,0.5,4.8,1.4s1.7,2.3,1.7,4.2v10.4H175z M173.8,140.5l-1.7,0.1
				c-1.2,0-2.2,0.3-2.8,0.7c-0.6,0.4-0.9,1-0.9,1.9c0,1.2,0.7,1.8,2.1,1.8c1,0,1.8-0.3,2.4-0.9c0.6-0.6,0.9-1.3,0.9-2.3V140.5z"/>
			<path class="st3" d="M196.9,147.7h-4.3v-9.2c0-1.1-0.2-2-0.6-2.5c-0.4-0.6-1-0.8-1.9-0.8c-1.2,0-2.1,0.4-2.6,1.2
				c-0.5,0.8-0.8,2.1-0.8,4v7.4h-4.3v-15.7h3.3l0.6,2h0.2c0.5-0.8,1.1-1.3,2-1.7c0.8-0.4,1.8-0.6,2.9-0.6c1.8,0,3.2,0.5,4.1,1.5
				c0.9,1,1.4,2.4,1.4,4.3V147.7z"/>
			<path class="st3" d="M210,131.8c1.9,0,3.3,0.7,4.3,2.2s1.6,3.4,1.6,5.9c0,2.6-0.5,4.6-1.6,6s-2.5,2.1-4.4,2.1
				c-1.8,0-3.3-0.7-4.3-2h-0.3l-0.7,1.7h-3.3v-21.8h4.3v5.1c0,0.6-0.1,1.7-0.2,3.1h0.2C206.5,132.5,208,131.8,210,131.8z
				 M208.6,135.2c-1.1,0-1.8,0.3-2.3,1s-0.7,1.7-0.8,3.2v0.5c0,1.7,0.2,2.9,0.7,3.6c0.5,0.7,1.3,1.1,2.4,1.1c0.9,0,1.6-0.4,2.1-1.2
				c0.5-0.8,0.8-2,0.8-3.5c0-1.5-0.3-2.7-0.8-3.5C210.2,135.6,209.5,135.2,208.6,135.2z"/>
			<path class="st3" d="M219.2,128c0-1.4,0.8-2.1,2.3-2.1s2.3,0.7,2.3,2.1c0,0.7-0.2,1.2-0.6,1.5s-1,0.6-1.7,0.6
				C220,130.1,219.2,129.4,219.2,128z M223.7,147.7h-4.3v-15.7h4.3V147.7z"/>
			<path class="st3" d="M242.7,147.7h-4.3v-9.2c0-1.1-0.2-2-0.6-2.5c-0.4-0.6-1-0.8-1.9-0.8c-1.2,0-2.1,0.4-2.6,1.2
				c-0.5,0.8-0.8,2.1-0.8,4v7.4h-4.3v-15.7h3.3l0.6,2h0.2c0.5-0.8,1.1-1.3,2-1.7c0.8-0.4,1.8-0.6,2.9-0.6c1.8,0,3.2,0.5,4.1,1.5
				c0.9,1,1.4,2.4,1.4,4.3V147.7z"/>
			<path class="st3" d="M252,148c-1.8,0-3.3-0.7-4.3-2.1c-1.1-1.4-1.6-3.4-1.6-5.9c0-2.6,0.5-4.6,1.6-6c1.1-1.4,2.5-2.2,4.4-2.2
				c2,0,3.5,0.8,4.5,2.3h0.1c-0.2-1.2-0.3-2.2-0.3-3.1v-5h4.3v21.8h-3.3l-0.8-2h-0.2C255.5,147.2,254,148,252,148z M253.5,144.6
				c1.1,0,1.9-0.3,2.4-1c0.5-0.6,0.8-1.7,0.8-3.2V140c0-1.7-0.3-2.9-0.8-3.6c-0.5-0.7-1.4-1.1-2.5-1.1c-1,0-1.7,0.4-2.2,1.2
				c-0.5,0.8-0.8,2-0.8,3.5c0,1.5,0.3,2.7,0.8,3.5C251.8,144.2,252.5,144.6,253.5,144.6z"/>
			<path class="st3" d="M276.3,147.7l-0.6-2h-0.2c-0.5,0.7-1.1,1.3-1.9,1.7c-0.8,0.4-1.8,0.6-2.9,0.6c-1.8,0-3.2-0.5-4.2-1.5
				c-0.9-1-1.4-2.4-1.4-4.3v-10.2h4.3v9.2c0,1.1,0.2,2,0.6,2.5c0.4,0.6,1,0.8,1.9,0.8c1.2,0,2.1-0.4,2.6-1.2c0.5-0.8,0.8-2.1,0.8-4
				v-7.4h4.3v15.7H276.3z"/>
			<path class="st3" d="M298.5,147.7h-4.3v-9.2c0-1.1-0.2-2-0.6-2.5c-0.4-0.6-1-0.8-1.9-0.8c-1.2,0-2.1,0.4-2.6,1.2
				c-0.5,0.8-0.8,2.1-0.8,4v7.4h-4.3v-15.7h3.3l0.6,2h0.2c0.5-0.8,1.1-1.3,2-1.7c0.8-0.4,1.8-0.6,2.9-0.6c1.8,0,3.2,0.5,4.1,1.5
				c0.9,1,1.4,2.4,1.4,4.3V147.7z"/>
			<path class="st3" d="M316.6,132.1v2.2l-2.5,0.6c0.4,0.7,0.7,1.5,0.7,2.4c0,1.7-0.6,3-1.8,3.9c-1.2,0.9-2.8,1.4-4.9,1.4l-0.8,0
				l-0.6-0.1c-0.4,0.3-0.7,0.7-0.7,1.1c0,0.6,0.8,0.9,2.4,0.9h2.7c1.7,0,3,0.4,3.9,1.1c0.9,0.7,1.4,1.8,1.4,3.3
				c0,1.8-0.8,3.3-2.3,4.3c-1.5,1-3.7,1.5-6.6,1.5c-2.2,0-3.9-0.4-5-1.1c-1.2-0.8-1.7-1.8-1.7-3.2c0-0.9,0.3-1.7,0.9-2.4
				c0.6-0.6,1.5-1.1,2.6-1.4c-0.4-0.2-0.8-0.5-1.1-0.9c-0.3-0.4-0.5-0.9-0.5-1.4c0-0.6,0.2-1.1,0.5-1.5c0.3-0.4,0.8-0.8,1.5-1.2
				c-0.8-0.4-1.5-0.9-2-1.7c-0.5-0.8-0.7-1.7-0.7-2.8c0-1.7,0.6-3,1.7-4c1.1-0.9,2.7-1.4,4.8-1.4c0.4,0,1,0,1.6,0.1
				c0.6,0.1,1,0.1,1.2,0.2H316.6z M304.5,149.9c0,0.6,0.3,1.1,0.8,1.4s1.4,0.5,2.4,0.5c1.5,0,2.7-0.2,3.6-0.6c0.9-0.4,1.3-1,1.3-1.7
				c0-0.6-0.3-1-0.8-1.2c-0.5-0.2-1.3-0.3-2.4-0.3h-2.2c-0.8,0-1.4,0.2-2,0.6C304.7,148.9,304.5,149.3,304.5,149.9z M306,137.2
				c0,0.8,0.2,1.5,0.6,2c0.4,0.5,1,0.7,1.8,0.7c0.8,0,1.4-0.2,1.8-0.7c0.4-0.5,0.6-1.2,0.6-2c0-1.9-0.8-2.8-2.3-2.8
				C306.8,134.4,306,135.3,306,137.2z"/>
		</g>
	</g>
	<g>
		<g class="st2">
			<path class="st3" d="M574.7,113V92.5h4.3v16.9h8.3v3.6H574.7z"/>
			<path class="st3" d="M604.8,105.2c0,2.5-0.7,4.5-2,6c-1.3,1.4-3.2,2.2-5.6,2.2c-1.5,0-2.8-0.3-4-1c-1.1-0.7-2-1.6-2.6-2.8
				c-0.6-1.2-0.9-2.7-0.9-4.3c0-2.6,0.7-4.5,2-6c1.3-1.4,3.2-2.1,5.6-2.1c1.5,0,2.8,0.3,4,1c1.1,0.7,2,1.6,2.6,2.8
				C604.5,102.1,604.8,103.5,604.8,105.2z M594,105.2c0,1.6,0.3,2.7,0.8,3.5c0.5,0.8,1.3,1.2,2.5,1.2c1.1,0,2-0.4,2.5-1.2
				c0.5-0.8,0.8-2,0.8-3.5c0-1.6-0.3-2.7-0.8-3.5c-0.5-0.8-1.3-1.2-2.5-1.2c-1.1,0-2,0.4-2.5,1.2C594.2,102.4,594,103.6,594,105.2z"
				/>
			<path class="st3" d="M612.5,104.5l1.9-2.4l4.4-4.8h4.8l-6.2,6.8l6.6,8.9H619l-4.5-6.3l-1.8,1.5v4.9h-4.3V91.2h4.3v9.7
				L612.5,104.5L612.5,104.5z"/>
			<path class="st3" d="M636.1,113l-0.8-2.1h-0.1c-0.7,0.9-1.5,1.5-2.2,1.9c-0.8,0.4-1.8,0.5-3,0.5c-1.5,0-2.7-0.4-3.6-1.3
				c-0.9-0.9-1.3-2.1-1.3-3.7c0-1.7,0.6-2.9,1.7-3.7c1.2-0.8,2.9-1.2,5.3-1.3l2.7-0.1v-0.7c0-1.6-0.8-2.4-2.4-2.4
				c-1.3,0-2.7,0.4-4.4,1.1l-1.4-2.9c1.8-0.9,3.8-1.4,6-1.4c2.1,0,3.7,0.5,4.8,1.4s1.7,2.3,1.7,4.2V113H636.1z M634.8,105.8
				l-1.7,0.1c-1.2,0-2.2,0.3-2.8,0.7c-0.6,0.4-0.9,1-0.9,1.9c0,1.2,0.7,1.8,2.1,1.8c1,0,1.8-0.3,2.4-0.9c0.6-0.6,0.9-1.3,0.9-2.3
				V105.8z"/>
			<path class="st3" d="M647.8,113h-4.3V91.2h4.3V113z"/>
			<path class="st3" d="M659.3,113.3c-2.5,0-4.5-0.7-5.9-2.1c-1.4-1.4-2.1-3.4-2.1-5.9c0-2.6,0.7-4.7,2-6.1c1.3-1.4,3.1-2.2,5.4-2.2
				c2.2,0,3.9,0.6,5.2,1.9c1.2,1.3,1.8,3,1.8,5.2v2.1h-10.1c0,1.2,0.4,2.2,1.1,2.8c0.7,0.7,1.6,1,2.8,1c0.9,0,1.8-0.1,2.7-0.3
				s1.7-0.5,2.6-0.9v3.3c-0.7,0.4-1.5,0.7-2.4,0.8C661.6,113.2,660.6,113.3,659.3,113.3z M658.7,100.1c-0.9,0-1.6,0.3-2.1,0.9
				c-0.5,0.6-0.8,1.4-0.9,2.4h6c0-1.1-0.3-1.9-0.8-2.4C660.4,100.4,659.6,100.1,658.7,100.1z"/>
			<path class="st3" d="M680.1,108.4c0,1.6-0.6,2.8-1.7,3.7c-1.1,0.8-2.8,1.3-5,1.3c-1.1,0-2.1-0.1-2.9-0.2
				c-0.8-0.2-1.6-0.4-2.3-0.7v-3.5c0.8,0.4,1.7,0.7,2.7,0.9c1,0.3,1.9,0.4,2.6,0.4c1.6,0,2.3-0.4,2.3-1.3c0-0.3-0.1-0.6-0.3-0.8
				s-0.6-0.4-1.1-0.7s-1.2-0.6-2-0.9c-1.2-0.5-2.1-1-2.7-1.4s-1-0.9-1.2-1.5c-0.3-0.6-0.4-1.2-0.4-2.1c0-1.4,0.5-2.5,1.6-3.2
				s2.6-1.1,4.6-1.1c1.9,0,3.7,0.4,5.5,1.2l-1.3,3.1c-0.8-0.3-1.5-0.6-2.2-0.8c-0.7-0.2-1.4-0.3-2.1-0.3c-1.3,0-1.9,0.3-1.9,1
				c0,0.4,0.2,0.7,0.6,1s1.3,0.7,2.7,1.2c1.2,0.5,2.1,1,2.7,1.4c0.6,0.4,1,0.9,1.3,1.5C680,106.9,680.1,107.6,680.1,108.4z"/>
			<path class="st3" d="M709.4,113h-5.5L695,97.5h-0.1c0.2,2.7,0.3,4.7,0.3,5.9v9.6h-3.9V92.5h5.5l8.9,15.3h0.1
				c-0.1-2.7-0.2-4.5-0.2-5.6v-9.7h3.9V113z"/>
			<path class="st3" d="M721.3,113.3c-2.5,0-4.5-0.7-5.9-2.1c-1.4-1.4-2.1-3.4-2.1-5.9c0-2.6,0.7-4.7,2-6.1c1.3-1.4,3.1-2.2,5.4-2.2
				c2.2,0,3.9,0.6,5.2,1.9c1.2,1.3,1.8,3,1.8,5.2v2.1h-10.1c0,1.2,0.4,2.2,1.1,2.8s1.6,1,2.8,1c0.9,0,1.8-0.1,2.7-0.3
				s1.7-0.5,2.6-0.9v3.3c-0.7,0.4-1.5,0.7-2.4,0.8C723.6,113.2,722.6,113.3,721.3,113.3z M720.7,100.1c-0.9,0-1.6,0.3-2.1,0.9
				c-0.5,0.6-0.8,1.4-0.9,2.4h6c0-1.1-0.3-1.9-0.8-2.4C722.4,100.4,721.6,100.1,720.7,100.1z"/>
			<path class="st3" d="M737.8,109.9c0.7,0,1.6-0.2,2.7-0.5v3.2c-1.1,0.5-2.4,0.7-3.9,0.7c-1.7,0-3-0.4-3.7-1.3s-1.2-2.2-1.2-3.9
				v-7.6h-2v-1.8l2.4-1.4l1.2-3.3h2.7v3.3h4.4v3.2h-4.4v7.6c0,0.6,0.2,1.1,0.5,1.3C736.8,109.8,737.2,109.9,737.8,109.9z"/>
			<path class="st3" d="M754.6,113h-12.4v-2.5l7.3-9.9h-6.8v-3.3h11.7v2.8l-7.1,9.6h7.3V113z"/>
			<path class="st3" d="M770.5,113l-1.2-5.5l-1.6-6.9h-0.1l-2.9,12.4h-4.6l-4.5-15.7h4.3l1.8,6.9c0.3,1.2,0.6,3,0.9,5.1h0.1
				c0-0.7,0.2-1.8,0.5-3.4l0.2-1.2l1.9-7.5h4.7l1.8,7.5c0,0.2,0.1,0.5,0.2,0.9s0.2,0.8,0.2,1.3c0.1,0.5,0.1,0.9,0.2,1.3
				c0.1,0.4,0.1,0.8,0.1,1h0.1c0.1-0.7,0.2-1.6,0.4-2.8c0.2-1.2,0.4-2,0.5-2.4l1.9-6.9h4.2l-4.5,15.7H770.5z"/>
			<path class="st3" d="M789.3,113.3c-2.5,0-4.5-0.7-5.9-2.1c-1.4-1.4-2.1-3.4-2.1-5.9c0-2.6,0.7-4.7,2-6.1c1.3-1.4,3.1-2.2,5.4-2.2
				c2.2,0,3.9,0.6,5.2,1.9c1.2,1.3,1.8,3,1.8,5.2v2.1h-10.1c0,1.2,0.4,2.2,1.1,2.8s1.6,1,2.8,1c0.9,0,1.8-0.1,2.7-0.3
				s1.7-0.5,2.6-0.9v3.3c-0.7,0.4-1.5,0.7-2.4,0.8C791.6,113.2,790.5,113.3,789.3,113.3z M788.7,100.1c-0.9,0-1.6,0.3-2.1,0.9
				c-0.5,0.6-0.8,1.4-0.9,2.4h6c0-1.1-0.3-1.9-0.8-2.4C790.3,100.4,789.6,100.1,788.7,100.1z"/>
			<path class="st3" d="M807.9,97.1c0.6,0,1.1,0,1.4,0.1l-0.3,4c-0.3-0.1-0.8-0.1-1.3-0.1c-1.4,0-2.4,0.4-3.2,1.1
				c-0.8,0.7-1.1,1.7-1.1,2.9v8h-4.3V97.4h3.2l0.6,2.6h0.2c0.5-0.9,1.1-1.6,2-2.1C806.1,97.3,807,97.1,807.9,97.1z"/>
			<path class="st3" d="M816.3,104.5l1.9-2.4l4.4-4.8h4.8l-6.2,6.8l6.6,8.9h-4.9l-4.5-6.3l-1.8,1.5v4.9h-4.3V91.2h4.3v9.7
				L816.3,104.5L816.3,104.5z"/>
		</g>
		<g class="st2">
			<path class="st3" d="M672.9,147.7v-20.5h4.3v16.9h8.3v3.6H672.9z"/>
			<path class="st3" d="M701.6,147.7l-1.5-4.9h-7.5l-1.5,4.9h-4.7l7.2-20.6h5.3l7.3,20.6H701.6z M699.1,139.2
				c-1.4-4.4-2.1-6.9-2.3-7.5s-0.3-1-0.4-1.4c-0.3,1.2-1.2,4.2-2.6,8.9H699.1z"/>
			<path class="st3" d="M727,147.7h-5.5l-8.9-15.5h-0.1c0.2,2.7,0.3,4.7,0.3,5.9v9.6h-3.9v-20.5h5.5l8.9,15.3h0.1
				c-0.1-2.7-0.2-4.5-0.2-5.6v-9.7h3.9V147.7z"/>
		</g>
	</g>
	<g>
		<g class="st2">
			<path class="st3" d="M1100.2,113h-4.3V92.5h11.7v3.6h-7.5v5.3h7v3.5h-7V113z"/>
			<path class="st3" d="M1122.4,113l-0.6-2h-0.2c-0.5,0.7-1.1,1.3-1.9,1.7c-0.8,0.4-1.8,0.6-2.9,0.6c-1.8,0-3.2-0.5-4.2-1.5
				c-0.9-1-1.4-2.4-1.4-4.3V97.4h4.3v9.2c0,1.1,0.2,2,0.6,2.5c0.4,0.6,1,0.8,1.9,0.8c1.2,0,2.1-0.4,2.6-1.2s0.8-2.1,0.8-4v-7.4h4.3
				V113H1122.4z"/>
			<path class="st3" d="M1144.6,113h-4.3v-9.2c0-1.1-0.2-2-0.6-2.5s-1-0.8-1.9-0.8c-1.2,0-2.1,0.4-2.6,1.2c-0.5,0.8-0.8,2.1-0.8,4
				v7.4h-4.3V97.4h3.3l0.6,2h0.2c0.5-0.8,1.1-1.3,2-1.7c0.8-0.4,1.8-0.6,2.9-0.6c1.8,0,3.2,0.5,4.1,1.5c0.9,1,1.4,2.4,1.4,4.3V113z"
				/>
			<path class="st3" d="M1153.2,104.5l1.9-2.4l4.4-4.8h4.8l-6.2,6.8l6.6,8.9h-4.9l-4.5-6.3l-1.8,1.5v4.9h-4.3V91.2h4.3v9.7
				L1153.2,104.5L1153.2,104.5z"/>
			<path class="st3" d="M1181.3,113h-4.3v-9.2c0-1.1-0.2-2-0.6-2.5c-0.4-0.6-1-0.8-1.9-0.8c-1.2,0-2.1,0.4-2.6,1.2s-0.8,2.1-0.8,4
				v7.4h-4.3V97.4h3.3l0.6,2h0.2c0.5-0.8,1.1-1.3,2-1.7s1.8-0.6,2.9-0.6c1.8,0,3.2,0.5,4.1,1.5c0.9,1,1.4,2.4,1.4,4.3V113z"/>
			<path class="st3" d="M1192.8,113.3c-2.5,0-4.5-0.7-5.9-2.1c-1.4-1.4-2.1-3.4-2.1-5.9c0-2.6,0.7-4.7,2-6.1
				c1.3-1.4,3.1-2.2,5.4-2.2c2.2,0,3.9,0.6,5.2,1.9c1.2,1.3,1.8,3,1.8,5.2v2.1h-10.1c0,1.2,0.4,2.2,1.1,2.8c0.7,0.7,1.6,1,2.8,1
				c0.9,0,1.8-0.1,2.7-0.3s1.7-0.5,2.6-0.9v3.3c-0.7,0.4-1.5,0.7-2.4,0.8C1195.1,113.2,1194,113.3,1192.8,113.3z M1192.2,100.1
				c-0.9,0-1.6,0.3-2.1,0.9c-0.5,0.6-0.8,1.4-0.9,2.4h6c0-1.1-0.3-1.9-0.8-2.4C1193.8,100.4,1193.1,100.1,1192.2,100.1z"/>
			<path class="st3" d="M1209.3,109.9c0.7,0,1.6-0.2,2.7-0.5v3.2c-1.1,0.5-2.4,0.7-3.9,0.7c-1.7,0-3-0.4-3.7-1.3
				c-0.8-0.9-1.2-2.2-1.2-3.9v-7.6h-2v-1.8l2.4-1.4l1.2-3.3h2.7v3.3h4.4v3.2h-4.4v7.6c0,0.6,0.2,1.1,0.5,1.3
				C1208.3,109.8,1208.7,109.9,1209.3,109.9z"/>
			<path class="st3" d="M1226,113h-12.4v-2.5l7.3-9.9h-6.8v-3.3h11.7v2.8l-7.1,9.6h7.3V113z"/>
		</g>
		<g class="st2">
			<path class="st3" d="M1139.1,147.7h-4.9l-2.8-10.8c-0.1-0.4-0.3-1.2-0.5-2.4c-0.2-1.2-0.4-2-0.4-2.4c-0.1,0.5-0.2,1.3-0.4,2.4
				c-0.2,1.1-0.4,1.9-0.5,2.4l-2.8,10.7h-4.9l-5.2-20.5h4.3l2.6,11.2c0.5,2.1,0.8,3.9,1,5.4c0.1-0.5,0.2-1.4,0.4-2.5
				c0.2-1.1,0.4-2,0.6-2.6l3-11.5h4.1l3,11.5c0.1,0.5,0.3,1.3,0.5,2.4c0.2,1.1,0.3,2,0.4,2.7c0.1-0.7,0.2-1.6,0.4-2.7
				c0.2-1.1,0.4-2,0.6-2.6l2.6-11.2h4.3L1139.1,147.7z"/>
			<path class="st3" d="M1146.9,147.7v-20.5h4.3v16.9h8.3v3.6H1146.9z"/>
			<path class="st3" d="M1175.6,147.7l-1.5-4.9h-7.5l-1.5,4.9h-4.7l7.2-20.6h5.3l7.3,20.6H1175.6z M1173.1,139.2
				c-1.4-4.4-2.1-6.9-2.3-7.5s-0.3-1-0.4-1.4c-0.3,1.2-1.2,4.2-2.6,8.9H1173.1z"/>
			<path class="st3" d="M1201.1,147.7h-5.5l-8.9-15.5h-0.1c0.2,2.7,0.3,4.7,0.3,5.9v9.6h-3.9v-20.5h5.5l8.9,15.3h0.1
				c-0.1-2.7-0.2-4.5-0.2-5.6v-9.7h3.9V147.7z"/>
		</g>
	</g>
	<line class="st4" x1="0" y1="10.1" x2="1400" y2="10.1"/>
	<line class="st4" x1="0" y1="680" x2="1400" y2="680"/>
</g>
<g id="Inhalt">
	<g>
		<g class="st2">
			<path class="st5" d="M206.3,288.3h5.7v8.1c-0.9,0.3-1.8,0.5-2.7,0.6s-2,0.2-3.2,0.2c-2.5,0-4.5-0.8-5.9-2.3
				c-1.4-1.5-2.1-3.6-2.1-6.3c0-1.7,0.3-3.3,1-4.6c0.7-1.3,1.7-2.3,3-3c1.3-0.7,2.8-1,4.6-1c1.8,0,3.4,0.3,5,1l-0.8,1.7
				c-1.5-0.6-3-1-4.4-1c-2,0-3.6,0.6-4.8,1.8c-1.1,1.2-1.7,2.9-1.7,5c0,2.3,0.6,4,1.7,5.1c1.1,1.2,2.7,1.7,4.9,1.7
				c1.2,0,2.3-0.1,3.4-0.4V290h-3.7V288.3z"/>
			<path class="st5" d="M217.6,297h-1.9v-17.8h1.9V297z"/>
			<path class="st5" d="M229.3,297l-0.4-1.8h-0.1c-0.6,0.8-1.2,1.3-1.9,1.6c-0.6,0.3-1.4,0.4-2.3,0.4c-1.2,0-2.2-0.3-2.9-1
				c-0.7-0.6-1.1-1.5-1.1-2.7c0-2.5,2-3.9,6.1-4l2.1-0.1v-0.8c0-1-0.2-1.7-0.6-2.2c-0.4-0.5-1.1-0.7-2-0.7c-1,0-2.2,0.3-3.5,1
				l-0.6-1.5c0.6-0.3,1.3-0.6,2-0.8s1.5-0.3,2.2-0.3c1.5,0,2.6,0.3,3.3,1c0.7,0.7,1.1,1.7,1.1,3.2v8.5H229.3z M225.1,295.7
				c1.2,0,2.1-0.3,2.8-1c0.7-0.6,1-1.6,1-2.7v-1.1l-1.9,0.1c-1.5,0.1-2.6,0.3-3.3,0.7c-0.7,0.4-1,1.1-1,1.9c0,0.7,0.2,1.2,0.6,1.6
				C223.7,295.5,224.3,295.7,225.1,295.7z"/>
			<path class="st5" d="M242.7,293.6c0,1.2-0.4,2.1-1.3,2.7c-0.9,0.6-2.1,0.9-3.7,0.9c-1.7,0-3-0.3-3.9-0.8v-1.8
				c0.6,0.3,1.2,0.5,1.9,0.7c0.7,0.2,1.4,0.3,2,0.3c1,0,1.8-0.2,2.3-0.5c0.5-0.3,0.8-0.8,0.8-1.4c0-0.5-0.2-0.9-0.6-1.3
				c-0.4-0.3-1.2-0.8-2.5-1.2c-1.2-0.4-2-0.8-2.5-1.1c-0.5-0.3-0.9-0.7-1.1-1.1c-0.2-0.4-0.4-0.9-0.4-1.5c0-1,0.4-1.8,1.2-2.4
				c0.8-0.6,2-0.9,3.4-0.9c1.3,0,2.7,0.3,4,0.8l-0.7,1.5c-1.3-0.5-2.4-0.8-3.4-0.8c-0.9,0-1.6,0.1-2,0.4c-0.5,0.3-0.7,0.7-0.7,1.2
				c0,0.3,0.1,0.6,0.3,0.9c0.2,0.2,0.4,0.5,0.8,0.7c0.4,0.2,1.1,0.5,2.2,0.9c1.5,0.5,2.5,1.1,3,1.6S242.7,292.8,242.7,293.6z"/>
			<path class="st5" d="M251.5,286h-3.2v11h-1.9v-11h-2.2v-0.9l2.2-0.7v-0.7c0-3.1,1.3-4.6,4-4.6c0.7,0,1.4,0.1,2.3,0.4l-0.5,1.5
				c-0.7-0.2-1.4-0.4-1.9-0.4c-0.7,0-1.2,0.2-1.6,0.7c-0.3,0.5-0.5,1.2-0.5,2.3v0.8h3.2V286z"/>
			<path class="st5" d="M261.4,297l-0.4-1.8H261c-0.6,0.8-1.2,1.3-1.9,1.6c-0.6,0.3-1.4,0.4-2.3,0.4c-1.2,0-2.2-0.3-2.9-1
				c-0.7-0.6-1.1-1.5-1.1-2.7c0-2.5,2-3.9,6.1-4l2.1-0.1v-0.8c0-1-0.2-1.7-0.6-2.2c-0.4-0.5-1.1-0.7-2-0.7c-1,0-2.2,0.3-3.5,1
				l-0.6-1.5c0.6-0.3,1.3-0.6,2-0.8s1.5-0.3,2.2-0.3c1.5,0,2.6,0.3,3.3,1c0.7,0.7,1.1,1.7,1.1,3.2v8.5H261.4z M257.2,295.7
				c1.2,0,2.1-0.3,2.8-1c0.7-0.6,1-1.6,1-2.7v-1.1l-1.9,0.1c-1.5,0.1-2.6,0.3-3.3,0.7c-0.7,0.4-1,1.1-1,1.9c0,0.7,0.2,1.2,0.6,1.6
				C255.8,295.5,256.4,295.7,257.2,295.7z"/>
			<path class="st5" d="M274.8,293.6c0,1.2-0.4,2.1-1.3,2.7c-0.9,0.6-2.1,0.9-3.7,0.9c-1.7,0-3-0.3-3.9-0.8v-1.8
				c0.6,0.3,1.2,0.5,1.9,0.7c0.7,0.2,1.4,0.3,2,0.3c1,0,1.8-0.2,2.3-0.5c0.5-0.3,0.8-0.8,0.8-1.4c0-0.5-0.2-0.9-0.6-1.3
				c-0.4-0.3-1.2-0.8-2.5-1.2c-1.2-0.4-2-0.8-2.5-1.1c-0.5-0.3-0.9-0.7-1.1-1.1c-0.2-0.4-0.4-0.9-0.4-1.5c0-1,0.4-1.8,1.2-2.4
				c0.8-0.6,2-0.9,3.4-0.9c1.3,0,2.7,0.3,4,0.8l-0.7,1.5c-1.3-0.5-2.4-0.8-3.4-0.8c-0.9,0-1.6,0.1-2,0.4c-0.5,0.3-0.7,0.7-0.7,1.2
				c0,0.3,0.1,0.6,0.3,0.9c0.2,0.2,0.4,0.5,0.8,0.7c0.4,0.2,1.1,0.5,2.2,0.9c1.5,0.5,2.5,1.1,3,1.6S274.8,292.8,274.8,293.6z"/>
			<path class="st5" d="M283.2,297.3c-1.9,0-3.3-0.6-4.4-1.7c-1.1-1.1-1.6-2.7-1.6-4.7c0-2,0.5-3.6,1.5-4.8c1-1.2,2.3-1.8,4-1.8
				c1.6,0,2.8,0.5,3.7,1.5s1.4,2.4,1.4,4.1v1.2h-8.6c0,1.5,0.4,2.6,1.1,3.3c0.7,0.8,1.7,1.1,3,1.1c1.3,0,2.7-0.3,4-0.8v1.7
				c-0.7,0.3-1.3,0.5-1.9,0.6C284.8,297.2,284.1,297.3,283.2,297.3z M282.7,285.9c-1,0-1.8,0.3-2.4,1c-0.6,0.7-1,1.6-1.1,2.7h6.5
				c0-1.2-0.3-2.1-0.8-2.7S283.7,285.9,282.7,285.9z"/>
			<path class="st5" d="M296.8,284.3c0.6,0,1.1,0,1.5,0.1l-0.3,1.8c-0.5-0.1-1-0.2-1.4-0.2c-1,0-1.9,0.4-2.6,1.2
				c-0.7,0.8-1.1,1.8-1.1,3.1v6.7H291v-12.5h1.6l0.2,2.3h0.1c0.5-0.8,1-1.4,1.7-1.9C295.3,284.5,296,284.3,296.8,284.3z"/>
			<path class="st5" d="M299.5,291.6v-1.7h5.6v1.7H299.5z"/>
		</g>
		<g class="st2">
			<path class="st5" d="M207.8,324.4l-0.4-1.8h-0.1c-0.6,0.8-1.2,1.3-1.9,1.6c-0.6,0.3-1.4,0.4-2.3,0.4c-1.2,0-2.2-0.3-2.9-1
				s-1.1-1.5-1.1-2.7c0-2.5,2-3.9,6.1-4l2.1-0.1v-0.8c0-1-0.2-1.7-0.6-2.2c-0.4-0.5-1.1-0.7-2-0.7c-1,0-2.2,0.3-3.5,1l-0.6-1.5
				c0.6-0.3,1.3-0.6,2-0.8c0.7-0.2,1.5-0.3,2.2-0.3c1.5,0,2.6,0.3,3.3,1c0.7,0.7,1.1,1.7,1.1,3.2v8.5H207.8z M203.5,323.1
				c1.2,0,2.1-0.3,2.8-1s1-1.6,1-2.7v-1.1l-1.9,0.1c-1.5,0.1-2.6,0.3-3.3,0.7c-0.7,0.4-1,1.1-1,1.9c0,0.7,0.2,1.2,0.6,1.6
				C202.2,322.9,202.7,323.1,203.5,323.1z"/>
			<path class="st5" d="M221.7,324.4v-8.1c0-1-0.2-1.8-0.7-2.3c-0.5-0.5-1.2-0.8-2.2-0.8c-1.3,0-2.3,0.4-2.9,1.1
				c-0.6,0.7-0.9,1.9-0.9,3.5v6.6h-1.9v-12.5h1.5l0.3,1.7h0.1c0.4-0.6,0.9-1.1,1.6-1.4c0.7-0.3,1.5-0.5,2.3-0.5
				c1.5,0,2.6,0.4,3.4,1.1s1.1,1.9,1.1,3.5v8.2H221.7z"/>
			<path class="st5" d="M235.5,321c0,1.2-0.4,2.1-1.3,2.7c-0.9,0.6-2.1,0.9-3.7,0.9c-1.7,0-3-0.3-3.9-0.8v-1.8
				c0.6,0.3,1.2,0.5,1.9,0.7c0.7,0.2,1.4,0.3,2,0.3c1,0,1.8-0.2,2.3-0.5c0.5-0.3,0.8-0.8,0.8-1.4c0-0.5-0.2-0.9-0.6-1.3
				c-0.4-0.3-1.2-0.8-2.5-1.2c-1.2-0.4-2-0.8-2.5-1.1c-0.5-0.3-0.9-0.7-1.1-1.1c-0.2-0.4-0.4-0.9-0.4-1.5c0-1,0.4-1.8,1.2-2.4
				c0.8-0.6,2-0.9,3.4-0.9c1.3,0,2.7,0.3,4,0.8l-0.7,1.5c-1.3-0.5-2.4-0.8-3.4-0.8c-0.9,0-1.6,0.1-2,0.4c-0.5,0.3-0.7,0.7-0.7,1.2
				c0,0.3,0.1,0.6,0.3,0.9s0.4,0.5,0.8,0.7c0.4,0.2,1.1,0.5,2.2,0.9c1.5,0.5,2.5,1.1,3,1.6C235.3,319.5,235.5,320.2,235.5,321z"/>
			<path class="st5" d="M243.6,324.7c-1.8,0-3.2-0.6-4.2-1.7c-1-1.1-1.5-2.7-1.5-4.7c0-2.1,0.5-3.7,1.5-4.9c1-1.1,2.4-1.7,4.3-1.7
				c0.6,0,1.2,0.1,1.8,0.2c0.6,0.1,1.1,0.3,1.4,0.5l-0.6,1.6c-0.4-0.2-0.9-0.3-1.4-0.4c-0.5-0.1-0.9-0.2-1.3-0.2
				c-2.5,0-3.8,1.6-3.8,4.9c0,1.5,0.3,2.7,0.9,3.5c0.6,0.8,1.5,1.2,2.8,1.2c1,0,2.1-0.2,3.2-0.7v1.7
				C246,324.4,244.9,324.7,243.6,324.7z"/>
			<path class="st5" d="M258.3,324.4v-8.1c0-1-0.2-1.8-0.7-2.3c-0.5-0.5-1.2-0.8-2.2-0.8c-1.3,0-2.3,0.4-2.9,1.1
				c-0.6,0.7-0.9,1.9-0.9,3.5v6.5h-1.9v-17.8h1.9v5.4c0,0.6,0,1.2-0.1,1.6h0.1c0.4-0.6,0.9-1.1,1.6-1.4s1.5-0.5,2.4-0.5
				c1.5,0,2.7,0.4,3.4,1.1s1.1,1.9,1.1,3.5v8.2H258.3z"/>
			<path class="st5" d="M266,324.4h-1.9v-17.8h1.9V324.4z"/>
			<path class="st5" d="M271.8,311.9v8.1c0,1,0.2,1.8,0.7,2.3c0.5,0.5,1.2,0.8,2.2,0.8c1.3,0,2.3-0.4,2.9-1.1
				c0.6-0.7,0.9-1.9,0.9-3.5v-6.6h1.9v12.5h-1.6l-0.3-1.7h-0.1c-0.4,0.6-0.9,1.1-1.6,1.4s-1.5,0.5-2.4,0.5c-1.5,0-2.7-0.4-3.4-1.1
				c-0.8-0.7-1.1-1.9-1.1-3.5v-8.2H271.8z"/>
			<path class="st5" d="M292.5,321c0,1.2-0.4,2.1-1.3,2.7c-0.9,0.6-2.1,0.9-3.7,0.9c-1.7,0-3-0.3-3.9-0.8v-1.8
				c0.6,0.3,1.2,0.5,1.9,0.7c0.7,0.2,1.4,0.3,2,0.3c1,0,1.8-0.2,2.3-0.5c0.5-0.3,0.8-0.8,0.8-1.4c0-0.5-0.2-0.9-0.6-1.3
				c-0.4-0.3-1.2-0.8-2.5-1.2c-1.2-0.4-2-0.8-2.5-1.1c-0.5-0.3-0.9-0.7-1.1-1.1c-0.2-0.4-0.4-0.9-0.4-1.5c0-1,0.4-1.8,1.2-2.4
				c0.8-0.6,2-0.9,3.4-0.9c1.3,0,2.7,0.3,4,0.8l-0.7,1.5c-1.3-0.5-2.4-0.8-3.4-0.8c-0.9,0-1.6,0.1-2,0.4c-0.5,0.3-0.7,0.7-0.7,1.2
				c0,0.3,0.1,0.6,0.3,0.9s0.4,0.5,0.8,0.7c0.4,0.2,1.1,0.5,2.2,0.9c1.5,0.5,2.5,1.1,3,1.6C292.2,319.5,292.5,320.2,292.5,321z"/>
			<path class="st5" d="M303.6,321c0,1.2-0.4,2.1-1.3,2.7c-0.9,0.6-2.1,0.9-3.7,0.9c-1.7,0-3-0.3-3.9-0.8v-1.8
				c0.6,0.3,1.2,0.5,1.9,0.7c0.7,0.2,1.4,0.3,2,0.3c1,0,1.8-0.2,2.3-0.5c0.5-0.3,0.8-0.8,0.8-1.4c0-0.5-0.2-0.9-0.6-1.3
				c-0.4-0.3-1.2-0.8-2.5-1.2c-1.2-0.4-2-0.8-2.5-1.1c-0.5-0.3-0.9-0.7-1.1-1.1c-0.2-0.4-0.4-0.9-0.4-1.5c0-1,0.4-1.8,1.2-2.4
				c0.8-0.6,2-0.9,3.4-0.9c1.3,0,2.7,0.3,4,0.8l-0.7,1.5c-1.3-0.5-2.4-0.8-3.4-0.8c-0.9,0-1.6,0.1-2,0.4c-0.5,0.3-0.7,0.7-0.7,1.2
				c0,0.3,0.1,0.6,0.3,0.9s0.4,0.5,0.8,0.7c0.4,0.2,1.1,0.5,2.2,0.9c1.5,0.5,2.5,1.1,3,1.6C303.4,319.5,303.6,320.2,303.6,321z"/>
		</g>
	</g>
	<g>
		<g class="st2">
			<path class="st5" d="M530.1,297h-2.2l-9.1-14h-0.1c0.1,1.6,0.2,3.2,0.2,4.5v9.5H517v-16.7h2.2l9.1,14h0.1c0-0.2,0-0.9-0.1-2
				c-0.1-1.1-0.1-1.9-0.1-2.4v-9.6h1.8V297z"/>
			<path class="st5" d="M539.7,297.3c-1.9,0-3.3-0.6-4.4-1.7c-1.1-1.1-1.6-2.7-1.6-4.7c0-2,0.5-3.6,1.5-4.8c1-1.2,2.3-1.8,4-1.8
				c1.6,0,2.8,0.5,3.7,1.5s1.4,2.4,1.4,4.1v1.2h-8.6c0,1.5,0.4,2.6,1.1,3.3s1.7,1.1,3,1.1c1.3,0,2.7-0.3,4-0.8v1.7
				c-0.7,0.3-1.3,0.5-1.9,0.6C541.2,297.2,540.5,297.3,539.7,297.3z M539.1,285.9c-1,0-1.8,0.3-2.4,1c-0.6,0.7-1,1.6-1.1,2.7h6.5
				c0-1.2-0.3-2.1-0.8-2.7C540.9,286.2,540.1,285.9,539.1,285.9z"/>
			<path class="st5" d="M551.5,295.7c0.3,0,0.7,0,1-0.1c0.3,0,0.6-0.1,0.7-0.2v1.5c-0.2,0.1-0.5,0.2-0.9,0.2
				c-0.4,0.1-0.8,0.1-1.1,0.1c-2.4,0-3.6-1.3-3.6-3.8V286h-1.8v-0.9l1.8-0.8l0.8-2.7h1.1v2.9h3.6v1.5h-3.6v7.4
				c0,0.8,0.2,1.3,0.5,1.7C550.4,295.5,550.9,295.7,551.5,295.7z"/>
			<path class="st5" d="M563.8,297h-9.1v-1.3l6.8-9.8h-6.4v-1.5h8.5v1.5l-6.7,9.6h6.9V297z"/>
			<path class="st5" d="M576.9,297l-2.3-7.3c-0.1-0.4-0.4-1.5-0.8-3.1h-0.1c-0.3,1.3-0.6,2.4-0.8,3.1l-2.4,7.3h-2.2l-3.4-12.5h2
				c0.8,3.1,1.4,5.5,1.8,7.2s0.7,2.8,0.7,3.3h0.1c0.1-0.4,0.2-1,0.4-1.7c0.2-0.7,0.3-1.2,0.5-1.6l2.3-7.2h2.1l2.2,7.2
				c0.4,1.3,0.7,2.4,0.9,3.3h0.1c0-0.3,0.1-0.7,0.2-1.3c0.1-0.6,0.9-3.6,2.4-9.2h2l-3.5,12.5H576.9z"/>
			<path class="st5" d="M590.2,297.3c-1.9,0-3.3-0.6-4.4-1.7c-1.1-1.1-1.6-2.7-1.6-4.7c0-2,0.5-3.6,1.5-4.8c1-1.2,2.3-1.8,4-1.8
				c1.6,0,2.8,0.5,3.7,1.5s1.4,2.4,1.4,4.1v1.2h-8.6c0,1.5,0.4,2.6,1.1,3.3s1.7,1.1,3,1.1c1.3,0,2.7-0.3,4-0.8v1.7
				c-0.7,0.3-1.3,0.5-1.9,0.6C591.8,297.2,591,297.3,590.2,297.3z M589.7,285.9c-1,0-1.8,0.3-2.4,1c-0.6,0.7-1,1.6-1.1,2.7h6.5
				c0-1.2-0.3-2.1-0.8-2.7C591.4,286.2,590.7,285.9,589.7,285.9z"/>
			<path class="st5" d="M603.7,284.3c0.6,0,1.1,0,1.5,0.1l-0.3,1.8c-0.5-0.1-1-0.2-1.4-0.2c-1,0-1.9,0.4-2.6,1.2
				c-0.7,0.8-1.1,1.8-1.1,3.1v6.7H598v-12.5h1.6l0.2,2.3h0.1c0.5-0.8,1-1.4,1.7-1.9C602.2,284.5,603,284.3,603.7,284.3z"/>
			<path class="st5" d="M609.5,290.6c0.3-0.5,0.8-1.1,1.5-1.8l4-4.3h2.3l-5.1,5.3l5.4,7.2h-2.3l-4.4-5.9l-1.4,1.2v4.7h-1.9v-17.8
				h1.9v9.4C609.5,289.1,609.4,289.7,609.5,290.6L609.5,290.6z"/>
			<path class="st5" d="M618.8,291.6v-1.7h5.6v1.7H618.8z"/>
		</g>
		<g class="st2">
			<path class="st5" d="M507.5,324.4l-4.8-12.5h2l2.7,7.4c0.6,1.7,1,2.9,1.1,3.4h0.1c0.1-0.4,0.3-1.2,0.8-2.5c0.4-1.3,1.4-4,3-8.3h2
				l-4.8,12.5H507.5z"/>
			<path class="st5" d="M521.8,324.7c-1.9,0-3.3-0.6-4.4-1.7c-1.1-1.1-1.6-2.7-1.6-4.7c0-2,0.5-3.6,1.5-4.8c1-1.2,2.3-1.8,4-1.8
				c1.6,0,2.8,0.5,3.7,1.5s1.4,2.4,1.4,4.1v1.2h-8.6c0,1.5,0.4,2.6,1.1,3.3s1.7,1.1,3,1.1c1.3,0,2.7-0.3,4-0.8v1.7
				c-0.7,0.3-1.3,0.5-1.9,0.6C523.3,324.6,522.6,324.7,521.8,324.7z M521.2,313.3c-1,0-1.8,0.3-2.4,1c-0.6,0.7-1,1.6-1.1,2.7h6.5
				c0-1.2-0.3-2.1-0.8-2.7C523,313.6,522.2,313.3,521.2,313.3z"/>
			<path class="st5" d="M535.3,311.7c0.6,0,1.1,0,1.5,0.1l-0.3,1.8c-0.5-0.1-1-0.2-1.4-0.2c-1,0-1.9,0.4-2.6,1.2
				c-0.7,0.8-1.1,1.8-1.1,3.1v6.7h-1.9v-12.5h1.6l0.2,2.3h0.1c0.5-0.8,1-1.4,1.7-1.9C533.8,311.9,534.5,311.7,535.3,311.7z"/>
			<path class="st5" d="M541,318c0.3-0.5,0.8-1.1,1.5-1.8l4-4.3h2.3l-5.1,5.3l5.4,7.2h-2.3l-4.4-5.9l-1.4,1.2v4.7h-1.9v-17.8h1.9
				v9.4C541,316.5,541,317.1,541,318L541,318z"/>
			<path class="st5" d="M559.1,324.4l-0.4-1.8h-0.1c-0.6,0.8-1.2,1.3-1.9,1.6c-0.6,0.3-1.4,0.4-2.3,0.4c-1.2,0-2.2-0.3-2.9-1
				s-1.1-1.5-1.1-2.7c0-2.5,2-3.9,6.1-4l2.1-0.1v-0.8c0-1-0.2-1.7-0.6-2.2c-0.4-0.5-1.1-0.7-2-0.7c-1,0-2.2,0.3-3.5,1l-0.6-1.5
				c0.6-0.3,1.3-0.6,2-0.8c0.7-0.2,1.5-0.3,2.2-0.3c1.5,0,2.6,0.3,3.3,1c0.7,0.7,1.1,1.7,1.1,3.2v8.5H559.1z M554.8,323.1
				c1.2,0,2.1-0.3,2.8-1s1-1.6,1-2.7v-1.1l-1.9,0.1c-1.5,0.1-2.6,0.3-3.3,0.7c-0.7,0.4-1,1.1-1,1.9c0,0.7,0.2,1.2,0.6,1.6
				C553.5,322.9,554.1,323.1,554.8,323.1z"/>
			<path class="st5" d="M570.3,311.7c1.6,0,2.9,0.6,3.8,1.7c0.9,1.1,1.4,2.7,1.4,4.8s-0.5,3.7-1.4,4.8c-0.9,1.1-2.2,1.7-3.8,1.7
				c-0.8,0-1.6-0.2-2.2-0.5c-0.7-0.3-1.2-0.8-1.7-1.4h-0.1l-0.4,1.6h-1.4v-17.8h1.9v4.3c0,1,0,1.8-0.1,2.6h0.1
				C567.2,312.3,568.5,311.7,570.3,311.7z M570,313.3c-1.3,0-2.2,0.4-2.8,1.1c-0.6,0.7-0.9,2-0.9,3.8c0,1.8,0.3,3,0.9,3.8
				c0.6,0.8,1.5,1.1,2.8,1.1c1.2,0,2-0.4,2.6-1.3c0.6-0.8,0.9-2.1,0.9-3.7c0-1.6-0.3-2.8-0.9-3.6S571.2,313.3,570,313.3z"/>
			<path class="st5" d="M584.1,324.7c-1.9,0-3.3-0.6-4.4-1.7c-1.1-1.1-1.6-2.7-1.6-4.7c0-2,0.5-3.6,1.5-4.8c1-1.2,2.3-1.8,4-1.8
				c1.6,0,2.8,0.5,3.7,1.5s1.4,2.4,1.4,4.1v1.2h-8.6c0,1.5,0.4,2.6,1.1,3.3s1.7,1.1,3,1.1c1.3,0,2.7-0.3,4-0.8v1.7
				c-0.7,0.3-1.3,0.5-1.9,0.6C585.6,324.6,584.9,324.7,584.1,324.7z M583.6,313.3c-1,0-1.8,0.3-2.4,1c-0.6,0.7-1,1.6-1.1,2.7h6.5
				c0-1.2-0.3-2.1-0.8-2.7C585.3,313.6,584.5,313.3,583.6,313.3z"/>
			<path class="st5" d="M593.8,324.4h-1.9v-17.8h1.9V324.4z"/>
			<path class="st5" d="M599.6,311.9v8.1c0,1,0.2,1.8,0.7,2.3c0.5,0.5,1.2,0.8,2.2,0.8c1.3,0,2.3-0.4,2.9-1.1
				c0.6-0.7,0.9-1.9,0.9-3.5v-6.6h1.9v12.5h-1.6l-0.3-1.7h-0.1c-0.4,0.6-0.9,1.1-1.6,1.4s-1.5,0.5-2.4,0.5c-1.5,0-2.7-0.4-3.4-1.1
				c-0.8-0.7-1.1-1.9-1.1-3.5v-8.2H599.6z"/>
			<path class="st5" d="M620.8,324.4v-8.1c0-1-0.2-1.8-0.7-2.3c-0.5-0.5-1.2-0.8-2.2-0.8c-1.3,0-2.3,0.4-2.9,1.1
				c-0.6,0.7-0.9,1.9-0.9,3.5v6.6h-1.9v-12.5h1.5l0.3,1.7h0.1c0.4-0.6,0.9-1.1,1.6-1.4c0.7-0.3,1.5-0.5,2.3-0.5
				c1.5,0,2.6,0.4,3.4,1.1s1.1,1.9,1.1,3.5v8.2H620.8z"/>
			<path class="st5" d="M636.8,311.9v1.2l-2.3,0.3c0.2,0.3,0.4,0.6,0.6,1c0.2,0.4,0.3,0.9,0.3,1.5c0,1.2-0.4,2.2-1.3,2.9
				s-2,1.1-3.5,1.1c-0.4,0-0.7,0-1.1-0.1c-0.8,0.4-1.2,1-1.2,1.6c0,0.3,0.1,0.6,0.4,0.8c0.3,0.2,0.8,0.2,1.5,0.2h2.2
				c1.4,0,2.4,0.3,3.1,0.9c0.7,0.6,1.1,1.4,1.1,2.5c0,1.4-0.6,2.4-1.7,3.2s-2.7,1.1-4.9,1.1c-1.6,0-2.9-0.3-3.8-0.9
				c-0.9-0.6-1.3-1.5-1.3-2.6c0-0.8,0.2-1.4,0.7-2s1.2-0.9,2.1-1.1c-0.3-0.1-0.6-0.4-0.8-0.7c-0.2-0.3-0.3-0.7-0.3-1.1
				c0-0.5,0.1-0.9,0.4-1.2s0.6-0.7,1.2-1c-0.6-0.3-1.2-0.7-1.6-1.4c-0.4-0.6-0.6-1.4-0.6-2.2c0-1.4,0.4-2.4,1.2-3.2
				c0.8-0.7,2-1.1,3.5-1.1c0.7,0,1.2,0.1,1.8,0.2H636.8z M626.8,326.5c0,0.7,0.3,1.2,0.9,1.5s1.4,0.5,2.5,0.5c1.6,0,2.8-0.2,3.5-0.7
				c0.8-0.5,1.1-1.1,1.1-1.9c0-0.7-0.2-1.1-0.6-1.4c-0.4-0.3-1.2-0.4-2.4-0.4h-2.3c-0.9,0-1.5,0.2-2,0.6S626.8,325.8,626.8,326.5z
				 M627.8,315.9c0,0.9,0.2,1.5,0.7,2c0.5,0.5,1.2,0.7,2.1,0.7c1.9,0,2.8-0.9,2.8-2.7c0-1.9-0.9-2.8-2.8-2.8c-0.9,0-1.6,0.2-2.1,0.7
				C628.1,314.3,627.8,315,627.8,315.9z"/>
		</g>
	</g>
	<g>
		<g class="st2">
			<path class="st5" d="M827.7,297h-2.2l-9.1-14h-0.1c0.1,1.6,0.2,3.2,0.2,4.5v9.5h-1.8v-16.7h2.2l9.1,14h0.1c0-0.2,0-0.9-0.1-2
				c-0.1-1.1-0.1-1.9-0.1-2.4v-9.6h1.8V297z"/>
			<path class="st5" d="M837.3,297.3c-1.9,0-3.3-0.6-4.4-1.7c-1.1-1.1-1.6-2.7-1.6-4.7c0-2,0.5-3.6,1.5-4.8c1-1.2,2.3-1.8,4-1.8
				c1.6,0,2.8,0.5,3.7,1.5s1.4,2.4,1.4,4.1v1.2h-8.6c0,1.5,0.4,2.6,1.1,3.3c0.7,0.8,1.7,1.1,3,1.1c1.3,0,2.7-0.3,4-0.8v1.7
				c-0.7,0.3-1.3,0.5-1.9,0.6C838.9,297.2,838.2,297.3,837.3,297.3z M836.8,285.9c-1,0-1.8,0.3-2.4,1c-0.6,0.7-1,1.6-1.1,2.7h6.5
				c0-1.2-0.3-2.1-0.8-2.7S837.8,285.9,836.8,285.9z"/>
			<path class="st5" d="M849.2,295.7c0.3,0,0.7,0,1-0.1c0.3,0,0.6-0.1,0.7-0.2v1.5c-0.2,0.1-0.5,0.2-0.9,0.2
				c-0.4,0.1-0.8,0.1-1.1,0.1c-2.4,0-3.6-1.3-3.6-3.8V286h-1.8v-0.9l1.8-0.8l0.8-2.7h1.1v2.9h3.6v1.5h-3.6v7.4
				c0,0.8,0.2,1.3,0.5,1.7C848.1,295.5,848.6,295.7,849.2,295.7z"/>
			<path class="st5" d="M861.4,297h-9.1v-1.3l6.8-9.8h-6.4v-1.5h8.5v1.5l-6.7,9.6h6.9V297z"/>
			<path class="st5" d="M874.6,297l-2.3-7.3c-0.1-0.4-0.4-1.5-0.8-3.1h-0.1c-0.3,1.3-0.6,2.4-0.8,3.1l-2.4,7.3H866l-3.4-12.5h2
				c0.8,3.1,1.4,5.5,1.8,7.2s0.7,2.8,0.7,3.3h0.1c0.1-0.4,0.2-1,0.4-1.7c0.2-0.7,0.3-1.2,0.5-1.6l2.3-7.2h2.1l2.2,7.2
				c0.4,1.3,0.7,2.4,0.9,3.3h0.1c0-0.3,0.1-0.7,0.2-1.3s0.9-3.6,2.4-9.2h2l-3.5,12.5H874.6z"/>
			<path class="st5" d="M887.9,297.3c-1.9,0-3.3-0.6-4.4-1.7c-1.1-1.1-1.6-2.7-1.6-4.7c0-2,0.5-3.6,1.5-4.8c1-1.2,2.3-1.8,4-1.8
				c1.6,0,2.8,0.5,3.7,1.5s1.4,2.4,1.4,4.1v1.2h-8.6c0,1.5,0.4,2.6,1.1,3.3c0.7,0.8,1.7,1.1,3,1.1c1.3,0,2.7-0.3,4-0.8v1.7
				c-0.7,0.3-1.3,0.5-1.9,0.6C889.4,297.2,888.7,297.3,887.9,297.3z M887.3,285.9c-1,0-1.8,0.3-2.4,1c-0.6,0.7-1,1.6-1.1,2.7h6.5
				c0-1.2-0.3-2.1-0.8-2.7S888.3,285.9,887.3,285.9z"/>
			<path class="st5" d="M901.4,284.3c0.6,0,1.1,0,1.5,0.1l-0.3,1.8c-0.5-0.1-1-0.2-1.4-0.2c-1,0-1.9,0.4-2.6,1.2
				c-0.7,0.8-1.1,1.8-1.1,3.1v6.7h-1.9v-12.5h1.6l0.2,2.3h0.1c0.5-0.8,1-1.4,1.7-1.9C899.9,284.5,900.6,284.3,901.4,284.3z"/>
			<path class="st5" d="M907.1,290.6c0.3-0.5,0.8-1.1,1.5-1.8l4-4.3h2.3l-5.1,5.3l5.4,7.2H913l-4.4-5.9l-1.4,1.2v4.7h-1.9v-17.8h1.9
				v9.4C907.1,289.1,907.1,289.7,907.1,290.6L907.1,290.6z"/>
			<path class="st5" d="M916.5,291.6v-1.7h5.6v1.7H916.5z"/>
		</g>
		<g class="st2">
			<path class="st5" d="M805.2,324.4l-4.8-12.5h2l2.7,7.4c0.6,1.7,1,2.9,1.1,3.4h0.1c0.1-0.4,0.3-1.2,0.8-2.5s1.4-4,3-8.3h2
				l-4.8,12.5H805.2z"/>
			<path class="st5" d="M819.4,324.7c-1.9,0-3.3-0.6-4.4-1.7c-1.1-1.1-1.6-2.7-1.6-4.7c0-2,0.5-3.6,1.5-4.8s2.3-1.8,4-1.8
				c1.6,0,2.8,0.5,3.7,1.5s1.4,2.4,1.4,4.1v1.2h-8.6c0,1.5,0.4,2.6,1.1,3.3c0.7,0.8,1.7,1.1,3,1.1c1.3,0,2.7-0.3,4-0.8v1.7
				c-0.7,0.3-1.3,0.5-1.9,0.6S820.3,324.7,819.4,324.7z M818.9,313.3c-1,0-1.8,0.3-2.4,1c-0.6,0.7-1,1.6-1.1,2.7h6.5
				c0-1.2-0.3-2.1-0.8-2.7C820.7,313.6,819.9,313.3,818.9,313.3z"/>
			<path class="st5" d="M833,311.7c0.6,0,1.1,0,1.5,0.1l-0.3,1.8c-0.5-0.1-1-0.2-1.4-0.2c-1,0-1.9,0.4-2.6,1.2
				c-0.7,0.8-1.1,1.8-1.1,3.1v6.7h-1.9v-12.5h1.6l0.2,2.3h0.1c0.5-0.8,1-1.4,1.7-1.9C831.5,311.9,832.2,311.7,833,311.7z"/>
			<path class="st5" d="M838.7,318c0.3-0.5,0.8-1.1,1.5-1.8l4-4.3h2.3l-5.1,5.3l5.4,7.2h-2.3l-4.4-5.9l-1.4,1.2v4.7h-1.9v-17.8h1.9
				v9.4C838.7,316.5,838.7,317.1,838.7,318L838.7,318z"/>
			<path class="st5" d="M856.8,324.4l-0.4-1.8h-0.1c-0.6,0.8-1.2,1.3-1.9,1.6s-1.4,0.4-2.3,0.4c-1.2,0-2.2-0.3-2.9-1
				c-0.7-0.6-1.1-1.5-1.1-2.7c0-2.5,2-3.9,6.1-4l2.1-0.1v-0.8c0-1-0.2-1.7-0.6-2.2c-0.4-0.5-1.1-0.7-2-0.7c-1,0-2.2,0.3-3.5,1
				l-0.6-1.5c0.6-0.3,1.3-0.6,2-0.8c0.7-0.2,1.5-0.3,2.2-0.3c1.5,0,2.6,0.3,3.3,1c0.7,0.7,1.1,1.7,1.1,3.2v8.5H856.8z M852.5,323.1
				c1.2,0,2.1-0.3,2.8-1c0.7-0.6,1-1.6,1-2.7v-1.1l-1.9,0.1c-1.5,0.1-2.6,0.3-3.3,0.7s-1,1.1-1,1.9c0,0.7,0.2,1.2,0.6,1.6
				C851.2,322.9,851.8,323.1,852.5,323.1z"/>
			<path class="st5" d="M867.9,311.7c1.6,0,2.9,0.6,3.8,1.7c0.9,1.1,1.4,2.7,1.4,4.8s-0.5,3.7-1.4,4.8s-2.2,1.7-3.8,1.7
				c-0.8,0-1.6-0.2-2.2-0.5s-1.2-0.8-1.7-1.4h-0.1l-0.4,1.6h-1.4v-17.8h1.9v4.3c0,1,0,1.8-0.1,2.6h0.1
				C864.9,312.3,866.2,311.7,867.9,311.7z M867.7,313.3c-1.3,0-2.2,0.4-2.8,1.1c-0.6,0.7-0.9,2-0.9,3.8c0,1.8,0.3,3,0.9,3.8
				c0.6,0.8,1.5,1.1,2.8,1.1c1.2,0,2-0.4,2.6-1.3c0.6-0.8,0.9-2.1,0.9-3.7c0-1.6-0.3-2.8-0.9-3.6S868.9,313.3,867.7,313.3z"/>
			<path class="st5" d="M881.7,324.7c-1.9,0-3.3-0.6-4.4-1.7c-1.1-1.1-1.6-2.7-1.6-4.7c0-2,0.5-3.6,1.5-4.8s2.3-1.8,4-1.8
				c1.6,0,2.8,0.5,3.7,1.5s1.4,2.4,1.4,4.1v1.2h-8.6c0,1.5,0.4,2.6,1.1,3.3c0.7,0.8,1.7,1.1,3,1.1c1.3,0,2.7-0.3,4-0.8v1.7
				c-0.7,0.3-1.3,0.5-1.9,0.6S882.6,324.7,881.7,324.7z M881.2,313.3c-1,0-1.8,0.3-2.4,1c-0.6,0.7-1,1.6-1.1,2.7h6.5
				c0-1.2-0.3-2.1-0.8-2.7C883,313.6,882.2,313.3,881.2,313.3z"/>
			<path class="st5" d="M891.5,324.4h-1.9v-17.8h1.9V324.4z"/>
			<path class="st5" d="M897.3,311.9v8.1c0,1,0.2,1.8,0.7,2.3c0.5,0.5,1.2,0.8,2.2,0.8c1.3,0,2.3-0.4,2.9-1.1s0.9-1.9,0.9-3.5v-6.6
				h1.9v12.5h-1.6l-0.3-1.7h-0.1c-0.4,0.6-0.9,1.1-1.6,1.4s-1.5,0.5-2.4,0.5c-1.5,0-2.7-0.4-3.4-1.1c-0.8-0.7-1.1-1.9-1.1-3.5v-8.2
				H897.3z"/>
			<path class="st5" d="M918.4,324.4v-8.1c0-1-0.2-1.8-0.7-2.3c-0.5-0.5-1.2-0.8-2.2-0.8c-1.3,0-2.3,0.4-2.9,1.1
				c-0.6,0.7-0.9,1.9-0.9,3.5v6.6h-1.9v-12.5h1.5l0.3,1.7h0.1c0.4-0.6,0.9-1.1,1.6-1.4c0.7-0.3,1.5-0.5,2.3-0.5
				c1.5,0,2.6,0.4,3.4,1.1s1.1,1.9,1.1,3.5v8.2H918.4z"/>
			<path class="st5" d="M934.5,311.9v1.2l-2.3,0.3c0.2,0.3,0.4,0.6,0.6,1c0.2,0.4,0.3,0.9,0.3,1.5c0,1.2-0.4,2.2-1.3,2.9
				s-2,1.1-3.5,1.1c-0.4,0-0.7,0-1.1-0.1c-0.8,0.4-1.2,1-1.2,1.6c0,0.3,0.1,0.6,0.4,0.8c0.3,0.2,0.8,0.2,1.5,0.2h2.2
				c1.4,0,2.4,0.3,3.1,0.9s1.1,1.4,1.1,2.5c0,1.4-0.6,2.4-1.7,3.2s-2.7,1.1-4.9,1.1c-1.6,0-2.9-0.3-3.8-0.9
				c-0.9-0.6-1.3-1.5-1.3-2.6c0-0.8,0.2-1.4,0.7-2s1.2-0.9,2.1-1.1c-0.3-0.1-0.6-0.4-0.8-0.7c-0.2-0.3-0.3-0.7-0.3-1.1
				c0-0.5,0.1-0.9,0.4-1.2c0.2-0.3,0.6-0.7,1.2-1c-0.6-0.3-1.2-0.7-1.6-1.4c-0.4-0.6-0.6-1.4-0.6-2.2c0-1.4,0.4-2.4,1.2-3.2
				c0.8-0.7,2-1.1,3.5-1.1c0.7,0,1.2,0.1,1.8,0.2H934.5z M924.5,326.5c0,0.7,0.3,1.2,0.9,1.5s1.4,0.5,2.5,0.5c1.6,0,2.8-0.2,3.5-0.7
				c0.8-0.5,1.1-1.1,1.1-1.9c0-0.7-0.2-1.1-0.6-1.4s-1.2-0.4-2.4-0.4h-2.3c-0.9,0-1.5,0.2-2,0.6
				C924.7,325.2,924.5,325.8,924.5,326.5z M925.5,315.9c0,0.9,0.2,1.5,0.7,2c0.5,0.5,1.2,0.7,2.1,0.7c1.9,0,2.8-0.9,2.8-2.7
				c0-1.9-0.9-2.8-2.8-2.8c-0.9,0-1.6,0.2-2.1,0.7C925.8,314.3,925.5,315,925.5,315.9z"/>
		</g>
	</g>
	<g>
		<g class="st2">
			<path class="st5" d="M1068.8,305.6h-1.9v-16.7h9.3v1.7h-7.4v6.1h6.9v1.7h-6.9V305.6z"/>
			<path class="st5" d="M1080.4,293v8.1c0,1,0.2,1.8,0.7,2.3c0.5,0.5,1.2,0.8,2.2,0.8c1.3,0,2.3-0.4,2.9-1.1s0.9-1.9,0.9-3.5V293
				h1.9v12.5h-1.6l-0.3-1.7h-0.1c-0.4,0.6-0.9,1.1-1.6,1.4s-1.5,0.5-2.4,0.5c-1.5,0-2.7-0.4-3.4-1.1c-0.8-0.7-1.1-1.9-1.1-3.5V293
				H1080.4z"/>
			<path class="st5" d="M1101.6,305.6v-8.1c0-1-0.2-1.8-0.7-2.3s-1.2-0.8-2.2-0.8c-1.3,0-2.3,0.4-2.9,1.1c-0.6,0.7-0.9,1.9-0.9,3.5
				v6.6h-1.9V293h1.5l0.3,1.7h0.1c0.4-0.6,0.9-1.1,1.6-1.4c0.7-0.3,1.5-0.5,2.3-0.5c1.5,0,2.6,0.4,3.4,1.1s1.1,1.9,1.1,3.5v8.2
				H1101.6z"/>
			<path class="st5" d="M1109.3,299.2c0.3-0.5,0.8-1.1,1.5-1.8l4-4.3h2.3l-5.1,5.3l5.4,7.2h-2.3l-4.4-5.9l-1.4,1.2v4.7h-1.9v-17.8
				h1.9v9.4C1109.3,297.6,1109.2,298.3,1109.3,299.2L1109.3,299.2z"/>
			<path class="st5" d="M1125.4,292.8c0.6,0,1.1,0,1.5,0.1l-0.3,1.8c-0.5-0.1-1-0.2-1.4-0.2c-1,0-1.9,0.4-2.6,1.2
				c-0.7,0.8-1.1,1.8-1.1,3.1v6.7h-1.9V293h1.6l0.2,2.3h0.1c0.5-0.8,1-1.4,1.7-1.9C1123.9,293,1124.6,292.8,1125.4,292.8z"/>
			<path class="st5" d="M1136.9,305.6l-0.4-1.8h-0.1c-0.6,0.8-1.2,1.3-1.9,1.6c-0.6,0.3-1.4,0.4-2.3,0.4c-1.2,0-2.2-0.3-2.9-1
				c-0.7-0.6-1.1-1.5-1.1-2.7c0-2.5,2-3.9,6.1-4l2.1-0.1v-0.8c0-1-0.2-1.7-0.6-2.2c-0.4-0.5-1.1-0.7-2-0.7c-1,0-2.2,0.3-3.5,1
				l-0.6-1.5c0.6-0.3,1.3-0.6,2-0.8s1.5-0.3,2.2-0.3c1.5,0,2.6,0.3,3.3,1c0.7,0.7,1.1,1.7,1.1,3.2v8.5H1136.9z M1132.6,304.2
				c1.2,0,2.1-0.3,2.8-1c0.7-0.6,1-1.6,1-2.7v-1.1l-1.9,0.1c-1.5,0.1-2.6,0.3-3.3,0.7c-0.7,0.4-1,1.1-1,1.9c0,0.7,0.2,1.2,0.6,1.6
				C1131.3,304.1,1131.9,304.2,1132.6,304.2z"/>
			<path class="st5" d="M1144,293v8.1c0,1,0.2,1.8,0.7,2.3c0.5,0.5,1.2,0.8,2.2,0.8c1.3,0,2.3-0.4,2.9-1.1c0.6-0.7,0.9-1.9,0.9-3.5
				V293h1.9v12.5h-1.6l-0.3-1.7h-0.1c-0.4,0.6-0.9,1.1-1.6,1.4s-1.5,0.5-2.4,0.5c-1.5,0-2.7-0.4-3.4-1.1c-0.8-0.7-1.1-1.9-1.1-3.5
				V293H1144z"/>
			<path class="st5" d="M1172.6,305.6v-8.1c0-1-0.2-1.7-0.6-2.2s-1.1-0.7-2-0.7c-1.2,0-2.1,0.3-2.6,1s-0.8,1.7-0.8,3.1v7h-1.9v-8.1
				c0-1-0.2-1.7-0.6-2.2s-1.1-0.7-2-0.7c-1.2,0-2.1,0.4-2.6,1.1c-0.6,0.7-0.8,1.9-0.8,3.5v6.6h-1.9V293h1.5l0.3,1.7h0.1
				c0.4-0.6,0.9-1.1,1.5-1.4s1.4-0.5,2.2-0.5c2,0,3.2,0.7,3.8,2.1h0.1c0.4-0.7,0.9-1.2,1.6-1.6c0.7-0.4,1.5-0.6,2.4-0.6
				c1.4,0,2.5,0.4,3.2,1.1c0.7,0.7,1.1,1.9,1.1,3.5v8.2H1172.6z"/>
		</g>
	</g>
	<g>
		<g class="st2">
			<path class="st6" d="M576.2,598.6l-1.5-4.9h-7.5l-1.5,4.9h-4.7l7.2-20.6h5.3l7.3,20.6H576.2z M573.7,590.1
				c-1.4-4.4-2.1-6.9-2.3-7.5c-0.2-0.6-0.3-1-0.4-1.4c-0.3,1.2-1.2,4.2-2.6,8.9H573.7z"/>
			<path class="st6" d="M587.3,590.1l1.9-2.4l4.4-4.8h4.8l-6.2,6.8l6.6,8.9h-4.9l-4.5-6.4l-1.8,1.5v4.9h-4.3v-21.8h4.3v9.7
				L587.3,590.1L587.3,590.1z"/>
			<path class="st6" d="M607.6,595.5c0.7,0,1.6-0.2,2.7-0.5v3.2c-1.1,0.5-2.4,0.7-3.9,0.7c-1.7,0-3-0.4-3.7-1.3
				c-0.8-0.9-1.2-2.2-1.2-3.9v-7.6h-2v-1.8l2.4-1.4l1.2-3.3h2.7v3.3h4.4v3.2h-4.4v7.6c0,0.6,0.2,1.1,0.5,1.3
				C606.6,595.3,607,595.5,607.6,595.5z"/>
			<path class="st6" d="M613.3,578.9c0-1.4,0.8-2.1,2.3-2.1s2.3,0.7,2.3,2.1c0,0.7-0.2,1.2-0.6,1.5c-0.4,0.4-1,0.6-1.7,0.6
				C614,581,613.3,580.3,613.3,578.9z M617.7,598.6h-4.3v-15.7h4.3V598.6z"/>
			<path class="st6" d="M625.9,598.6l-6-15.7h4.5l3,8.9c0.3,1.1,0.5,2.2,0.6,3.2h0.1c0-0.9,0.3-2,0.6-3.2l3-8.9h4.5l-6,15.7H625.9z"
				/>
			<path class="st6" d="M642.6,590.1l1.9-2.4l4.4-4.8h4.8l-6.2,6.8l6.6,8.9h-4.9l-4.5-6.4l-1.8,1.5v4.9h-4.3v-21.8h4.3v9.7
				L642.6,590.1L642.6,590.1z"/>
			<path class="st6" d="M670.6,590.7c0,2.6-0.7,4.5-2,6c-1.3,1.4-3.2,2.2-5.6,2.2c-1.5,0-2.8-0.3-4-1c-1.1-0.7-2-1.6-2.7-2.8
				c-0.6-1.2-0.9-2.7-0.9-4.3c0-2.6,0.7-4.6,2-6s3.2-2.1,5.6-2.1c1.5,0,2.8,0.3,4,1s2,1.6,2.7,2.8S670.6,589.1,670.6,590.7z
				 M659.8,590.7c0,1.6,0.3,2.7,0.8,3.5c0.5,0.8,1.3,1.2,2.5,1.2c1.1,0,2-0.4,2.5-1.2s0.8-2,0.8-3.5c0-1.6-0.3-2.7-0.8-3.5
				c-0.5-0.8-1.3-1.2-2.5-1.2c-1.1,0-2,0.4-2.5,1.2C660,588,659.8,589.2,659.8,590.7z"/>
			<path class="st6" d="M688.2,598.6h-4.3v-9.2c0-1.1-0.2-2-0.6-2.5c-0.4-0.6-1-0.8-1.8-0.8c-1.1,0-1.9,0.4-2.4,1.2
				c-0.5,0.8-0.7,2.1-0.7,4v7.4h-4.3v-15.7h3.3l0.6,2h0.2c0.4-0.7,1-1.3,1.8-1.7c0.8-0.4,1.7-0.6,2.7-0.6c2.3,0,3.9,0.8,4.8,2.3h0.4
				c0.4-0.7,1-1.3,1.9-1.7c0.8-0.4,1.7-0.6,2.8-0.6c1.8,0,3.1,0.5,4,1.4c0.9,0.9,1.4,2.4,1.4,4.4v10.2h-4.3v-9.2
				c0-1.1-0.2-2-0.6-2.5c-0.4-0.6-1-0.8-1.8-0.8c-1,0-1.8,0.4-2.3,1.1s-0.8,1.9-0.8,3.6V598.6z"/>
			<path class="st6" d="M710.9,598.9c-1.8,0-3.3-0.7-4.3-2h-0.2c0.1,1.3,0.2,2.1,0.2,2.3v6.4h-4.3v-22.6h3.5l0.6,2h0.2
				c1-1.6,2.5-2.3,4.4-2.3c1.9,0,3.3,0.7,4.3,2.1c1,1.4,1.6,3.4,1.6,6c0,1.7-0.2,3.1-0.7,4.4c-0.5,1.2-1.2,2.2-2.1,2.8
				C713.2,598.6,712.2,598.9,710.9,598.9z M709.7,586c-1.1,0-1.8,0.3-2.3,1c-0.5,0.6-0.7,1.7-0.8,3.2v0.5c0,1.7,0.2,2.9,0.8,3.6
				c0.5,0.7,1.3,1.1,2.4,1.1c1.9,0,2.9-1.6,2.9-4.7c0-1.5-0.2-2.7-0.7-3.5C711.4,586.4,710.7,586,709.7,586z"/>
			<path class="st6" d="M734.7,590.7c0,2.6-0.7,4.5-2,6c-1.3,1.4-3.2,2.2-5.6,2.2c-1.5,0-2.8-0.3-4-1c-1.2-0.7-2-1.6-2.7-2.8
				c-0.6-1.2-0.9-2.7-0.9-4.3c0-2.6,0.7-4.6,2-6c1.3-1.4,3.2-2.1,5.6-2.1c1.5,0,2.8,0.3,4,1c1.1,0.7,2,1.6,2.6,2.8
				C734.4,587.6,734.7,589.1,734.7,590.7z M723.9,590.7c0,1.6,0.3,2.7,0.8,3.5s1.3,1.2,2.5,1.2c1.1,0,2-0.4,2.5-1.2s0.8-2,0.8-3.5
				c0-1.6-0.3-2.7-0.8-3.5c-0.5-0.8-1.3-1.2-2.5-1.2c-1.1,0-2,0.4-2.5,1.2C724.2,588,723.9,589.2,723.9,590.7z"/>
			<path class="st6" d="M752.7,598.6h-4.3v-9.2c0-1.1-0.2-2-0.6-2.5c-0.4-0.6-1-0.8-1.9-0.8c-1.2,0-2.1,0.4-2.6,1.2
				c-0.5,0.8-0.8,2.1-0.8,4v7.4h-4.3v-15.7h3.3l0.6,2h0.2c0.5-0.8,1.1-1.3,2-1.7c0.8-0.4,1.8-0.6,2.9-0.6c1.8,0,3.2,0.5,4.2,1.5
				c0.9,1,1.4,2.4,1.4,4.3V598.6z"/>
			<path class="st6" d="M764.2,598.9c-2.5,0-4.5-0.7-5.9-2.1s-2.1-3.4-2.1-5.9c0-2.6,0.7-4.7,2-6.1c1.3-1.4,3.1-2.2,5.4-2.2
				c2.2,0,3.9,0.6,5.2,1.9c1.2,1.3,1.9,3,1.9,5.2v2.1h-10.1c0,1.2,0.4,2.2,1.1,2.8c0.7,0.7,1.6,1,2.8,1c0.9,0,1.8-0.1,2.7-0.3
				c0.8-0.2,1.7-0.5,2.6-0.9v3.3c-0.7,0.4-1.5,0.7-2.4,0.8C766.5,598.8,765.5,598.9,764.2,598.9z M763.6,585.7
				c-0.9,0-1.6,0.3-2.1,0.9c-0.5,0.6-0.8,1.4-0.9,2.4h6c0-1.1-0.3-1.9-0.8-2.4C765.3,586,764.5,585.7,763.6,585.7z"/>
			<path class="st6" d="M788.6,598.6h-4.3v-9.2c0-1.1-0.2-2-0.6-2.5c-0.4-0.6-1-0.8-1.9-0.8c-1.2,0-2.1,0.4-2.6,1.2
				c-0.5,0.8-0.8,2.1-0.8,4v7.4h-4.3v-15.7h3.3l0.6,2h0.2c0.5-0.8,1.1-1.3,2-1.7c0.8-0.4,1.8-0.6,2.9-0.6c1.8,0,3.2,0.5,4.2,1.5
				c0.9,1,1.4,2.4,1.4,4.3V598.6z"/>
			<path class="st6" d="M799.6,595.5c0.7,0,1.6-0.2,2.7-0.5v3.2c-1.1,0.5-2.4,0.7-3.9,0.7c-1.7,0-3-0.4-3.7-1.3
				c-0.8-0.9-1.2-2.2-1.2-3.9v-7.6h-2v-1.8l2.4-1.4l1.2-3.3h2.7v3.3h4.4v3.2h-4.4v7.6c0,0.6,0.2,1.1,0.5,1.3
				C798.6,595.3,799,595.5,799.6,595.5z"/>
			<path class="st6" d="M812.6,598.9c-2.5,0-4.5-0.7-5.9-2.1s-2.1-3.4-2.1-5.9c0-2.6,0.7-4.7,2-6.1c1.3-1.4,3.1-2.2,5.4-2.2
				c2.2,0,3.9,0.6,5.2,1.9c1.2,1.3,1.9,3,1.9,5.2v2.1h-10.1c0,1.2,0.4,2.2,1.1,2.8c0.7,0.7,1.6,1,2.8,1c0.9,0,1.8-0.1,2.7-0.3
				c0.8-0.2,1.7-0.5,2.6-0.9v3.3c-0.7,0.4-1.5,0.7-2.4,0.8C814.8,598.8,813.8,598.9,812.6,598.9z M811.9,585.7
				c-0.9,0-1.6,0.3-2.1,0.9c-0.5,0.6-0.8,1.4-0.9,2.4h6c0-1.1-0.3-1.9-0.8-2.4C813.6,586,812.9,585.7,811.9,585.7z"/>
			<path class="st6" d="M836.9,598.6h-4.3v-9.2c0-1.1-0.2-2-0.6-2.5c-0.4-0.6-1-0.8-1.9-0.8c-1.2,0-2.1,0.4-2.6,1.2
				c-0.5,0.8-0.8,2.1-0.8,4v7.4h-4.3v-15.7h3.3l0.6,2h0.2c0.5-0.8,1.1-1.3,2-1.7c0.8-0.4,1.8-0.6,2.9-0.6c1.8,0,3.2,0.5,4.2,1.5
				c0.9,1,1.4,2.4,1.4,4.3V598.6z"/>
		</g>
	</g>
	<path class="st7" d="M399.3,518.4v65.2c0,2.8,2.2,5,5,5h135.2"/>
	<path class="st7" d="M999.3,518.4v65.2c0,2.8-2.2,5-5,5H860.5"/>
	<line class="st7" x1="700.1" y1="525.3" x2="700.1" y2="558.5"/>
	<path class="st7" d="M852.7,618.5H547.5c-4.1,0-7.4-3.3-7.4-7.4v-45.2c0-4.1,3.3-7.4,7.4-7.4h305.2c4.1,0,7.4,3.3,7.4,7.4v45.2
		C860.1,615.2,856.8,618.5,852.7,618.5z"/>
	<g>
		<g class="st2">
			<path class="st3" d="M667.1,445.7c0,1.8-0.7,3.3-2,4.4c-1.3,1.1-3.2,1.6-5.6,1.6c-2.2,0-4.1-0.4-5.8-1.2v-4
				c1.4,0.6,2.6,1.1,3.5,1.3c1,0.3,1.8,0.4,2.6,0.4c1,0,1.7-0.2,2.2-0.5c0.5-0.4,0.8-0.9,0.8-1.6c0-0.4-0.1-0.8-0.3-1.1
				c-0.2-0.3-0.6-0.6-1-0.9c-0.4-0.3-1.3-0.8-2.7-1.4c-1.3-0.6-2.2-1.2-2.8-1.7s-1.1-1.2-1.5-1.9c-0.4-0.7-0.6-1.6-0.6-2.5
				c0-1.8,0.6-3.2,1.8-4.3c1.2-1,2.9-1.6,5.1-1.6c1.1,0,2.1,0.1,3,0.4c1,0.3,2,0.6,3,1.1l-1.4,3.4c-1.1-0.4-2-0.8-2.7-0.9
				s-1.4-0.3-2.1-0.3c-0.8,0-1.5,0.2-1.9,0.6c-0.4,0.4-0.7,0.9-0.7,1.5c0,0.4,0.1,0.7,0.3,1s0.5,0.6,0.8,0.8
				c0.4,0.3,1.3,0.7,2.8,1.4c1.9,0.9,3.2,1.8,3.9,2.8C666.8,443.2,667.1,444.4,667.1,445.7z"/>
			<path class="st3" d="M683.4,451.4l-1.2-5.5l-1.6-6.9h-0.1l-2.9,12.4H673l-4.5-15.7h4.3l1.8,6.9c0.3,1.2,0.6,3,0.9,5.1h0.1
				c0-0.7,0.2-1.8,0.5-3.4l0.2-1.2l1.9-7.5h4.7l1.8,7.5c0,0.2,0.1,0.5,0.2,0.9c0.1,0.4,0.2,0.8,0.2,1.3c0.1,0.5,0.1,0.9,0.2,1.3
				s0.1,0.8,0.1,1h0.1c0.1-0.7,0.2-1.6,0.4-2.8c0.2-1.2,0.4-2,0.5-2.4l1.9-6.9h4.2l-4.5,15.7H683.4z"/>
			<path class="st3" d="M694.9,431.7c0-1.4,0.8-2.1,2.3-2.1s2.3,0.7,2.3,2.1c0,0.7-0.2,1.2-0.6,1.5s-1,0.6-1.7,0.6
				C695.7,433.8,694.9,433.1,694.9,431.7z M699.3,451.4h-4.3v-15.7h4.3V451.4z"/>
			<path class="st3" d="M710.4,448.3c0.7,0,1.6-0.2,2.7-0.5v3.2c-1.1,0.5-2.4,0.7-3.9,0.7c-1.7,0-3-0.4-3.7-1.3
				c-0.8-0.9-1.2-2.2-1.2-3.9v-7.6h-2v-1.8l2.4-1.4l1.2-3.3h2.7v3.3h4.4v3.2h-4.4v7.6c0,0.6,0.2,1.1,0.5,1.3
				C709.4,448.1,709.9,448.3,710.4,448.3z"/>
			<path class="st3" d="M722.6,451.7c-4.9,0-7.3-2.7-7.3-8c0-2.7,0.7-4.7,2-6.1c1.3-1.4,3.2-2.1,5.7-2.1c1.8,0,3.4,0.4,4.9,1.1
				l-1.3,3.3c-0.7-0.3-1.3-0.5-1.9-0.7c-0.6-0.2-1.2-0.3-1.7-0.3c-2.2,0-3.3,1.6-3.3,4.7c0,3.1,1.1,4.6,3.3,4.6
				c0.8,0,1.6-0.1,2.3-0.3c0.7-0.2,1.4-0.6,2.1-1v3.7c-0.7,0.4-1.4,0.7-2.1,0.9C724.6,451.6,723.7,451.7,722.6,451.7z"/>
			<path class="st3" d="M745.5,451.4h-4.3v-9.2c0-2.3-0.8-3.4-2.5-3.4c-1.2,0-2.1,0.4-2.6,1.2c-0.5,0.8-0.8,2.1-0.8,4v7.4H731v-21.8
				h4.3v4.4c0,0.3,0,1.2-0.1,2.4l-0.1,1.3h0.2c1-1.5,2.5-2.3,4.5-2.3c1.8,0,3.2,0.5,4.2,1.5c1,1,1.4,2.4,1.4,4.3V451.4z"/>
		</g>
		<g class="st2">
			<path class="st3" d="M595.5,470h5.7v8.1c-0.9,0.3-1.8,0.5-2.7,0.6s-2,0.2-3.2,0.2c-2.5,0-4.5-0.8-5.9-2.3
				c-1.4-1.5-2.1-3.6-2.1-6.3c0-1.7,0.3-3.3,1-4.6c0.7-1.3,1.7-2.3,3-3s2.8-1,4.6-1c1.8,0,3.4,0.3,5,1l-0.8,1.7c-1.5-0.6-3-1-4.4-1
				c-2,0-3.6,0.6-4.8,1.8c-1.1,1.2-1.7,2.9-1.7,5c0,2.3,0.6,4,1.7,5.1c1.1,1.2,2.7,1.7,4.9,1.7c1.2,0,2.3-0.1,3.4-0.4v-5.1h-3.7V470
				z"/>
			<path class="st3" d="M610.2,479c-1.9,0-3.3-0.6-4.4-1.7c-1.1-1.1-1.6-2.7-1.6-4.7c0-2,0.5-3.6,1.5-4.8c1-1.2,2.3-1.8,4-1.8
				c1.6,0,2.8,0.5,3.7,1.5s1.4,2.4,1.4,4.1v1.2h-8.6c0,1.5,0.4,2.6,1.1,3.3s1.7,1.1,3,1.1c1.3,0,2.7-0.3,4-0.8v1.7
				c-0.7,0.3-1.3,0.5-1.9,0.6C611.8,479,611.1,479,610.2,479z M609.7,467.6c-1,0-1.8,0.3-2.4,1c-0.6,0.7-1,1.6-1.1,2.7h6.5
				c0-1.2-0.3-2.1-0.8-2.7C611.5,468,610.7,467.6,609.7,467.6z"/>
			<path class="st3" d="M623.9,466.1c1.6,0,2.9,0.6,3.8,1.7c0.9,1.1,1.4,2.7,1.4,4.8s-0.5,3.7-1.4,4.8c-0.9,1.1-2.2,1.7-3.8,1.7
				c-0.8,0-1.6-0.2-2.2-0.5c-0.7-0.3-1.2-0.8-1.7-1.4h-0.1l-0.4,1.6h-1.4V461h1.9v4.3c0,1,0,1.8-0.1,2.6h0.1
				C620.9,466.7,622.2,466.1,623.9,466.1z M623.6,467.7c-1.3,0-2.2,0.4-2.8,1.1c-0.6,0.7-0.9,2-0.9,3.8c0,1.8,0.3,3,0.9,3.8
				c0.6,0.8,1.5,1.1,2.8,1.1c1.2,0,2-0.4,2.6-1.3c0.6-0.8,0.9-2.1,0.9-3.7c0-1.6-0.3-2.8-0.9-3.6S624.8,467.7,623.6,467.7z"/>
			<path class="st3" d="M640.1,478.8l-0.4-1.8h-0.1c-0.6,0.8-1.2,1.3-1.9,1.6c-0.6,0.3-1.4,0.4-2.3,0.4c-1.2,0-2.2-0.3-2.9-1
				s-1.1-1.5-1.1-2.7c0-2.5,2-3.9,6.1-4l2.1-0.1v-0.8c0-1-0.2-1.7-0.6-2.2c-0.4-0.5-1.1-0.7-2-0.7c-1,0-2.2,0.3-3.5,1l-0.6-1.5
				c0.6-0.3,1.3-0.6,2-0.8c0.7-0.2,1.5-0.3,2.2-0.3c1.5,0,2.6,0.3,3.3,1c0.7,0.7,1.1,1.7,1.1,3.2v8.5H640.1z M635.8,477.5
				c1.2,0,2.1-0.3,2.8-1s1-1.6,1-2.7v-1.1l-1.9,0.1c-1.5,0.1-2.6,0.3-3.3,0.7c-0.7,0.4-1,1.1-1,1.9c0,0.7,0.2,1.2,0.6,1.6
				C634.5,477.3,635.1,477.5,635.8,477.5z M633.6,462.9c0-0.4,0.1-0.7,0.3-0.9c0.2-0.2,0.4-0.3,0.7-0.3c0.3,0,0.5,0.1,0.7,0.3
				c0.2,0.2,0.3,0.5,0.3,0.9c0,0.4-0.1,0.7-0.3,0.9s-0.5,0.3-0.7,0.3c-0.3,0-0.5-0.1-0.7-0.3C633.7,463.5,633.6,463.3,633.6,462.9z
				 M637.9,462.9c0-0.4,0.1-0.7,0.3-0.9c0.2-0.2,0.4-0.3,0.7-0.3s0.5,0.1,0.7,0.3c0.2,0.2,0.3,0.5,0.3,0.9c0,0.4-0.1,0.7-0.3,0.9
				s-0.5,0.3-0.7,0.3s-0.5-0.1-0.7-0.3S637.9,463.3,637.9,462.9z"/>
			<path class="st3" d="M647.2,466.3v8.1c0,1,0.2,1.8,0.7,2.3c0.5,0.5,1.2,0.8,2.2,0.8c1.3,0,2.3-0.4,2.9-1.1
				c0.6-0.7,0.9-1.9,0.9-3.5v-6.6h1.9v12.5h-1.6l-0.3-1.7h-0.1c-0.4,0.6-0.9,1.1-1.6,1.4s-1.5,0.5-2.4,0.5c-1.5,0-2.7-0.4-3.4-1.1
				c-0.8-0.7-1.1-1.9-1.1-3.5v-8.2H647.2z"/>
			<path class="st3" d="M668.3,477.1h-0.1c-0.9,1.3-2.2,1.9-3.9,1.9c-1.6,0-2.9-0.6-3.8-1.7c-0.9-1.1-1.4-2.7-1.4-4.8
				c0-2.1,0.5-3.7,1.4-4.8s2.2-1.7,3.8-1.7c1.7,0,3,0.6,3.9,1.9h0.1l-0.1-0.9l0-0.9V461h1.9v17.8h-1.5L668.3,477.1z M664.5,477.4
				c1.3,0,2.2-0.4,2.8-1.1c0.6-0.7,0.9-1.8,0.9-3.4v-0.4c0-1.8-0.3-3-0.9-3.8c-0.6-0.8-1.5-1.1-2.8-1.1c-1.1,0-2,0.4-2.6,1.3
				s-0.9,2.1-0.9,3.7c0,1.6,0.3,2.8,0.9,3.6C662.5,477,663.4,477.4,664.5,477.4z"/>
			<path class="st3" d="M679.4,479c-1.9,0-3.3-0.6-4.4-1.7c-1.1-1.1-1.6-2.7-1.6-4.7c0-2,0.5-3.6,1.5-4.8c1-1.2,2.3-1.8,4-1.8
				c1.6,0,2.8,0.5,3.7,1.5s1.4,2.4,1.4,4.1v1.2h-8.6c0,1.5,0.4,2.6,1.1,3.3s1.7,1.1,3,1.1c1.3,0,2.7-0.3,4-0.8v1.7
				c-0.7,0.3-1.3,0.5-1.9,0.6C681,479,680.3,479,679.4,479z M678.9,467.6c-1,0-1.8,0.3-2.4,1c-0.6,0.7-1,1.6-1.1,2.7h6.5
				c0-1.2-0.3-2.1-0.8-2.7C680.7,468,679.9,467.6,678.9,467.6z"/>
			<path class="st3" d="M686.2,473.4v-1.7h5.6v1.7H686.2z"/>
			<path class="st3" d="M702.7,466.3v8.1c0,1,0.2,1.8,0.7,2.3c0.5,0.5,1.2,0.8,2.2,0.8c1.3,0,2.3-0.4,2.9-1.1s0.9-1.9,0.9-3.5v-6.6
				h1.9v12.5h-1.6l-0.3-1.7h-0.1c-0.4,0.6-0.9,1.1-1.6,1.4s-1.5,0.5-2.4,0.5c-1.5,0-2.7-0.4-3.4-1.1c-0.8-0.7-1.1-1.9-1.1-3.5v-8.2
				H702.7z"/>
			<path class="st3" d="M723.8,478.8v-8.1c0-1-0.2-1.8-0.7-2.3s-1.2-0.8-2.2-0.8c-1.3,0-2.3,0.4-2.9,1.1c-0.6,0.7-0.9,1.9-0.9,3.5
				v6.6h-1.9v-12.5h1.5l0.3,1.7h0.1c0.4-0.6,0.9-1.1,1.6-1.4c0.7-0.3,1.5-0.5,2.3-0.5c1.5,0,2.6,0.4,3.4,1.1s1.1,1.9,1.1,3.5v8.2
				H723.8z"/>
			<path class="st3" d="M738.1,477.1H738c-0.9,1.3-2.2,1.9-3.9,1.9c-1.6,0-2.9-0.6-3.8-1.7c-0.9-1.1-1.4-2.7-1.4-4.8
				c0-2.1,0.5-3.7,1.4-4.8s2.2-1.7,3.8-1.7c1.7,0,3,0.6,3.9,1.9h0.1l-0.1-0.9l0-0.9V461h1.9v17.8h-1.5L738.1,477.1z M734.3,477.4
				c1.3,0,2.2-0.4,2.8-1.1c0.6-0.7,0.9-1.8,0.9-3.4v-0.4c0-1.8-0.3-3-0.9-3.8s-1.5-1.1-2.8-1.1c-1.1,0-2,0.4-2.6,1.3
				c-0.6,0.9-0.9,2.1-0.9,3.7c0,1.6,0.3,2.8,0.9,3.6C732.3,477,733.2,477.4,734.3,477.4z"/>
			<path class="st3" d="M759.7,474.4c0,1.5-0.5,2.6-1.6,3.4c-1.1,0.8-2.5,1.2-4.3,1.2c-2,0-3.5-0.3-4.6-0.8v-1.9
				c0.7,0.3,1.4,0.5,2.2,0.7c0.8,0.2,1.6,0.3,2.4,0.3c1.3,0,2.3-0.2,2.9-0.7s1-1.2,1-2.1c0-0.6-0.1-1.1-0.3-1.4
				c-0.2-0.4-0.6-0.7-1.2-1c-0.5-0.3-1.4-0.7-2.5-1.1c-1.6-0.6-2.7-1.2-3.3-2c-0.7-0.8-1-1.8-1-3c0-1.3,0.5-2.3,1.5-3.1
				s2.2-1.1,3.8-1.1c1.7,0,3.2,0.3,4.6,0.9l-0.6,1.7c-1.4-0.6-2.7-0.9-4-0.9c-1,0-1.8,0.2-2.4,0.7s-0.9,1.1-0.9,1.8
				c0,0.6,0.1,1.1,0.3,1.4c0.2,0.4,0.6,0.7,1.1,1c0.5,0.3,1.3,0.6,2.3,1c1.8,0.6,3,1.3,3.6,2C759.4,472.3,759.7,473.2,759.7,474.4z"
				/>
			<path class="st3" d="M766.9,477.5c0.3,0,0.7,0,1-0.1c0.3,0,0.6-0.1,0.7-0.2v1.5c-0.2,0.1-0.5,0.2-0.9,0.2
				c-0.4,0.1-0.8,0.1-1.1,0.1c-2.4,0-3.6-1.3-3.6-3.8v-7.4h-1.8v-0.9l1.8-0.8l0.8-2.7h1.1v2.9h3.6v1.5h-3.6v7.4
				c0,0.8,0.2,1.3,0.5,1.7C765.8,477.3,766.3,477.5,766.9,477.5z"/>
			<path class="st3" d="M781.9,472.5c0,2-0.5,3.6-1.5,4.8s-2.4,1.7-4.3,1.7c-1.1,0-2.1-0.3-3-0.8c-0.9-0.5-1.5-1.3-2-2.3
				s-0.7-2.1-0.7-3.5c0-2,0.5-3.6,1.5-4.8c1-1.1,2.4-1.7,4.2-1.7c1.8,0,3.1,0.6,4.2,1.7S781.9,470.5,781.9,472.5z M772.4,472.5
				c0,1.6,0.3,2.8,1,3.7s1.6,1.3,2.8,1.3c1.2,0,2.2-0.4,2.8-1.3c0.6-0.8,1-2.1,1-3.7c0-1.6-0.3-2.8-1-3.6c-0.6-0.8-1.6-1.2-2.9-1.2
				c-1.2,0-2.2,0.4-2.8,1.2C772.7,469.7,772.4,470.9,772.4,472.5z"/>
			<path class="st3" d="M790.3,479c-1.8,0-3.2-0.6-4.2-1.7c-1-1.1-1.5-2.7-1.5-4.7c0-2.1,0.5-3.7,1.5-4.9c1-1.1,2.4-1.7,4.3-1.7
				c0.6,0,1.2,0.1,1.8,0.2c0.6,0.1,1.1,0.3,1.4,0.5l-0.6,1.6c-0.4-0.2-0.9-0.3-1.4-0.4c-0.5-0.1-0.9-0.2-1.3-0.2
				c-2.5,0-3.8,1.6-3.8,4.9c0,1.5,0.3,2.7,0.9,3.5c0.6,0.8,1.5,1.2,2.8,1.2c1,0,2.1-0.2,3.2-0.7v1.7
				C792.6,478.8,791.5,479,790.3,479z"/>
			<path class="st3" d="M798.3,472.4c0.3-0.5,0.8-1.1,1.5-1.8l4-4.3h2.3l-5.1,5.3l5.4,7.2h-2.3l-4.4-5.9l-1.4,1.2v4.7h-1.9V461h1.9
				v9.4C798.3,470.9,798.2,471.5,798.3,472.4L798.3,472.4z"/>
			<path class="st3" d="M807.6,473.4v-1.7h5.6v1.7H807.6z"/>
		</g>
		<g class="st2">
			<path class="st3" d="M640.6,506.2l-2.3-7.3c-0.1-0.4-0.4-1.5-0.8-3.1h-0.1c-0.3,1.3-0.6,2.4-0.8,3.1l-2.4,7.3H632l-3.4-12.5h2
				c0.8,3.1,1.4,5.5,1.8,7.2s0.7,2.8,0.7,3.3h0.1c0.1-0.4,0.2-1,0.4-1.7c0.2-0.7,0.3-1.2,0.5-1.6l2.3-7.2h2.1l2.2,7.2
				c0.4,1.3,0.7,2.4,0.9,3.3h0.1c0-0.3,0.1-0.7,0.2-1.3c0.1-0.6,0.9-3.6,2.4-9.2h2l-3.5,12.5H640.6z"/>
			<path class="st3" d="M653.8,506.4c-1.9,0-3.3-0.6-4.4-1.7c-1.1-1.1-1.6-2.7-1.6-4.7c0-2,0.5-3.6,1.5-4.8c1-1.2,2.3-1.8,4-1.8
				c1.6,0,2.8,0.5,3.7,1.5s1.4,2.4,1.4,4.1v1.2h-8.6c0,1.5,0.4,2.6,1.1,3.3s1.7,1.1,3,1.1c1.3,0,2.7-0.3,4-0.8v1.7
				c-0.7,0.3-1.3,0.5-1.9,0.6C655.4,506.4,654.7,506.4,653.8,506.4z M653.3,495c-1,0-1.8,0.3-2.4,1c-0.6,0.7-1,1.6-1.1,2.7h6.5
				c0-1.2-0.3-2.1-0.8-2.7C655.1,495.4,654.3,495,653.3,495z"/>
			<path class="st3" d="M667.4,493.4c0.6,0,1.1,0,1.5,0.1l-0.3,1.8c-0.5-0.1-1-0.2-1.4-0.2c-1,0-1.9,0.4-2.6,1.2
				c-0.7,0.8-1.1,1.8-1.1,3.1v6.7h-1.9v-12.5h1.6l0.2,2.3h0.1c0.5-0.8,1-1.4,1.7-1.9C665.9,493.7,666.6,493.4,667.4,493.4z"/>
			<path class="st3" d="M673.1,499.8c0.3-0.5,0.8-1.1,1.5-1.8l4-4.3h2.3l-5.1,5.3l5.4,7.2h-2.3l-4.4-5.9l-1.4,1.2v4.7h-1.9v-17.8
				h1.9v9.4C673.1,498.3,673,498.9,673.1,499.8L673.1,499.8z"/>
			<path class="st3" d="M686.2,506.2l-4.8-12.5h2l2.7,7.4c0.6,1.7,1,2.9,1.1,3.4h0.1c0.1-0.4,0.3-1.2,0.8-2.5c0.4-1.3,1.4-4,3-8.3h2
				l-4.8,12.5H686.2z"/>
			<path class="st3" d="M700.5,506.4c-1.9,0-3.3-0.6-4.4-1.7c-1.1-1.1-1.6-2.7-1.6-4.7c0-2,0.5-3.6,1.5-4.8c1-1.2,2.3-1.8,4-1.8
				c1.6,0,2.8,0.5,3.7,1.5s1.4,2.4,1.4,4.1v1.2h-8.6c0,1.5,0.4,2.6,1.1,3.3s1.7,1.1,3,1.1c1.3,0,2.7-0.3,4-0.8v1.7
				c-0.7,0.3-1.3,0.5-1.9,0.6S701.3,506.4,700.5,506.4z M700,495c-1,0-1.8,0.3-2.4,1c-0.6,0.7-1,1.6-1.1,2.7h6.5
				c0-1.2-0.3-2.1-0.8-2.7C701.7,495.4,701,495,700,495z"/>
			<path class="st3" d="M714.1,493.4c0.6,0,1.1,0,1.5,0.1l-0.3,1.8c-0.5-0.1-1-0.2-1.4-0.2c-1,0-1.9,0.4-2.6,1.2
				c-0.7,0.8-1.1,1.8-1.1,3.1v6.7h-1.9v-12.5h1.6l0.2,2.3h0.1c0.5-0.8,1-1.4,1.7-1.9C712.5,493.7,713.3,493.4,714.1,493.4z"/>
			<path class="st3" d="M721.9,504.9c0.3,0,0.7,0,1-0.1c0.3,0,0.6-0.1,0.7-0.2v1.5c-0.2,0.1-0.5,0.2-0.9,0.2
				c-0.4,0.1-0.8,0.1-1.1,0.1c-2.4,0-3.6-1.3-3.6-3.8v-7.4h-1.8v-0.9l1.8-0.8l0.8-2.7h1.1v2.9h3.6v1.5h-3.6v7.4
				c0,0.8,0.2,1.3,0.5,1.7C720.8,504.7,721.3,504.9,721.9,504.9z"/>
			<path class="st3" d="M731.4,506.4c-1.9,0-3.3-0.6-4.4-1.7c-1.1-1.1-1.6-2.7-1.6-4.7c0-2,0.5-3.6,1.5-4.8s2.3-1.8,4-1.8
				c1.6,0,2.8,0.5,3.7,1.5s1.4,2.4,1.4,4.1v1.2h-8.6c0,1.5,0.4,2.6,1.1,3.3c0.7,0.8,1.7,1.1,3,1.1c1.3,0,2.7-0.3,4-0.8v1.7
				c-0.7,0.3-1.3,0.5-1.9,0.6S732.3,506.4,731.4,506.4z M730.9,495c-1,0-1.8,0.3-2.4,1c-0.6,0.7-1,1.6-1.1,2.7h6.5
				c0-1.2-0.3-2.1-0.8-2.7C732.7,495.4,731.9,495,730.9,495z"/>
			<path class="st3" d="M739.1,490.3c0-0.4,0.1-0.8,0.3-1c0.2-0.2,0.5-0.3,0.8-0.3c0.3,0,0.6,0.1,0.8,0.3c0.2,0.2,0.3,0.5,0.3,0.9
				s-0.1,0.7-0.3,1c-0.2,0.2-0.5,0.3-0.8,0.3c-0.3,0-0.6-0.1-0.8-0.3C739.2,491,739.1,490.7,739.1,490.3z M741.2,506.2h-1.9v-12.5
				h1.9V506.2z"/>
			<path class="st3" d="M747.1,506.2h-1.9v-17.8h1.9V506.2z"/>
			<path class="st3" d="M756.4,506.4c-1.9,0-3.3-0.6-4.4-1.7c-1.1-1.1-1.6-2.7-1.6-4.7c0-2,0.5-3.6,1.5-4.8c1-1.2,2.3-1.8,4-1.8
				c1.6,0,2.8,0.5,3.7,1.5s1.4,2.4,1.4,4.1v1.2h-8.6c0,1.5,0.4,2.6,1.1,3.3c0.7,0.8,1.7,1.1,3,1.1c1.3,0,2.7-0.3,4-0.8v1.7
				c-0.7,0.3-1.3,0.5-1.9,0.6C758,506.4,757.3,506.4,756.4,506.4z M755.9,495c-1,0-1.8,0.3-2.4,1c-0.6,0.7-1,1.6-1.1,2.7h6.5
				c0-1.2-0.3-2.1-0.8-2.7S756.9,495,755.9,495z"/>
			<path class="st3" d="M770,493.4c0.6,0,1.1,0,1.5,0.1l-0.3,1.8c-0.5-0.1-1-0.2-1.4-0.2c-1,0-1.9,0.4-2.6,1.2
				c-0.7,0.8-1.1,1.8-1.1,3.1v6.7h-1.9v-12.5h1.6l0.2,2.3h0.1c0.5-0.8,1-1.4,1.7-1.9C768.5,493.7,769.2,493.4,770,493.4z"/>
		</g>
	</g>
	<g>
		<g class="st2">
			<path class="st3" d="M1208,451.1h-11.8v-20.5h11.8v3.6h-7.5v4.5h6.9v3.6h-6.9v5.3h7.5V451.1z"/>
			<path class="st3" d="M1226.4,451.1h-4.3V442c0-1.1-0.2-2-0.6-2.5c-0.4-0.6-1-0.8-1.9-0.8c-1.2,0-2.1,0.4-2.6,1.2
				c-0.5,0.8-0.8,2.1-0.8,4v7.4h-4.3v-15.7h3.3l0.6,2h0.2c0.5-0.8,1.1-1.3,2-1.7c0.8-0.4,1.8-0.6,2.9-0.6c1.8,0,3.2,0.5,4.2,1.5
				c0.9,1,1.4,2.4,1.4,4.3V451.1z"/>
			<path class="st3" d="M1235.8,451.4c-1.8,0-3.3-0.7-4.3-2.1c-1.1-1.4-1.6-3.4-1.6-5.9c0-2.6,0.5-4.6,1.6-6
				c1.1-1.4,2.5-2.2,4.4-2.2c2,0,3.5,0.8,4.5,2.3h0.1c-0.2-1.2-0.3-2.2-0.3-3.1v-5h4.3v21.8h-3.3l-0.8-2h-0.2
				C1239.3,450.7,1237.8,451.4,1235.8,451.4z M1237.3,448c1.1,0,1.9-0.3,2.4-1c0.5-0.6,0.8-1.7,0.8-3.2v-0.5c0-1.7-0.3-2.9-0.8-3.6
				c-0.5-0.7-1.4-1.1-2.5-1.1c-1,0-1.7,0.4-2.2,1.2s-0.8,2-0.8,3.5c0,1.5,0.3,2.7,0.8,3.5C1235.6,447.6,1236.3,448,1237.3,448z"/>
			<path class="st3" d="M1262.7,435.5v2.2l-2.5,0.6c0.4,0.7,0.7,1.5,0.7,2.4c0,1.7-0.6,3-1.8,3.9c-1.2,0.9-2.8,1.4-4.9,1.4l-0.8,0
				l-0.6-0.1c-0.4,0.3-0.7,0.7-0.7,1.1c0,0.6,0.8,0.9,2.4,0.9h2.7c1.7,0,3,0.4,3.9,1.1c0.9,0.7,1.4,1.8,1.4,3.3
				c0,1.8-0.8,3.3-2.3,4.3s-3.7,1.5-6.6,1.5c-2.2,0-3.9-0.4-5-1.1s-1.7-1.8-1.7-3.2c0-0.9,0.3-1.7,0.9-2.4c0.6-0.6,1.5-1.1,2.6-1.4
				c-0.4-0.2-0.8-0.5-1.2-0.9c-0.3-0.4-0.5-0.9-0.5-1.4c0-0.6,0.2-1.1,0.5-1.5s0.8-0.8,1.5-1.2c-0.8-0.4-1.5-0.9-2-1.7
				s-0.7-1.7-0.7-2.8c0-1.7,0.6-3,1.7-4c1.1-0.9,2.7-1.4,4.8-1.4c0.4,0,1,0,1.6,0.1c0.6,0.1,1,0.1,1.2,0.2H1262.7z M1250.6,453.4
				c0,0.6,0.3,1.1,0.8,1.4c0.6,0.3,1.4,0.5,2.4,0.5c1.5,0,2.7-0.2,3.6-0.6s1.3-1,1.3-1.7c0-0.6-0.3-1-0.8-1.2
				c-0.5-0.2-1.3-0.3-2.4-0.3h-2.2c-0.8,0-1.4,0.2-2,0.6S1250.6,452.8,1250.6,453.4z M1252.1,440.6c0,0.9,0.2,1.5,0.6,2
				s1,0.7,1.8,0.7c0.8,0,1.4-0.2,1.8-0.7s0.6-1.2,0.6-2c0-1.9-0.8-2.8-2.3-2.8C1252.9,437.8,1252.1,438.7,1252.1,440.6z"/>
			<path class="st3" d="M1272.3,451.4c-2.5,0-4.5-0.7-5.9-2.1s-2.1-3.4-2.1-5.9c0-2.6,0.7-4.7,2-6.1c1.3-1.4,3.1-2.2,5.4-2.2
				c2.2,0,3.9,0.6,5.2,1.9c1.2,1.3,1.9,3,1.9,5.2v2.1h-10.1c0,1.2,0.4,2.2,1.1,2.8c0.7,0.7,1.6,1,2.8,1c0.9,0,1.8-0.1,2.7-0.3
				c0.8-0.2,1.7-0.5,2.6-0.9v3.3c-0.7,0.4-1.5,0.7-2.4,0.8C1274.6,451.3,1273.6,451.4,1272.3,451.4z M1271.7,438.2
				c-0.9,0-1.6,0.3-2.1,0.9c-0.5,0.6-0.8,1.4-0.9,2.4h6c0-1.1-0.3-1.9-0.8-2.4C1273.4,438.5,1272.6,438.2,1271.7,438.2z"/>
			<path class="st3" d="M1291,435.2c0.6,0,1.1,0,1.4,0.1l-0.3,4c-0.3-0.1-0.8-0.1-1.3-0.1c-1.4,0-2.4,0.4-3.2,1.1
				c-0.8,0.7-1.1,1.7-1.1,2.9v8h-4.3v-15.7h3.2l0.6,2.6h0.2c0.5-0.9,1.1-1.6,2-2.1C1289.1,435.4,1290,435.2,1291,435.2z"/>
			<path class="st3" d="M1305.2,451.1l-0.8-2.1h-0.1c-0.7,0.9-1.5,1.5-2.2,1.9s-1.8,0.5-3,0.5c-1.5,0-2.7-0.4-3.6-1.3
				c-0.9-0.9-1.3-2.1-1.3-3.7c0-1.7,0.6-2.9,1.7-3.7c1.2-0.8,2.9-1.2,5.3-1.3l2.7-0.1v-0.7c0-1.6-0.8-2.4-2.4-2.4
				c-1.3,0-2.7,0.4-4.4,1.1l-1.4-2.9c1.8-0.9,3.8-1.4,6-1.4c2.1,0,3.7,0.5,4.8,1.4c1.1,0.9,1.7,2.3,1.7,4.2v10.4H1305.2z
				 M1297,431.4c0-0.6,0.2-1.1,0.5-1.4s0.8-0.5,1.4-0.5c0.6,0,1.1,0.2,1.5,0.5s0.5,0.8,0.5,1.4c0,0.6-0.2,1-0.5,1.4
				c-0.4,0.3-0.8,0.5-1.4,0.5c-0.6,0-1.1-0.2-1.4-0.5S1297,432,1297,431.4z M1303.9,443.9l-1.7,0.1c-1.2,0-2.2,0.3-2.8,0.7
				c-0.6,0.4-0.9,1-0.9,1.9c0,1.2,0.7,1.8,2.1,1.8c1,0,1.8-0.3,2.4-0.9c0.6-0.6,0.9-1.3,0.9-2.3V443.9z M1302.7,431.4
				c0-0.7,0.2-1.1,0.6-1.4c0.4-0.3,0.8-0.5,1.4-0.5c0.6,0,1.1,0.2,1.5,0.5c0.4,0.3,0.5,0.8,0.5,1.4c0,0.6-0.2,1-0.5,1.4
				c-0.4,0.3-0.8,0.5-1.4,0.5c-0.6,0-1-0.2-1.4-0.5C1302.8,432.6,1302.7,432.1,1302.7,431.4z"/>
			<path class="st3" d="M1319.2,448c0.7,0,1.6-0.2,2.7-0.5v3.2c-1.1,0.5-2.4,0.7-3.9,0.7c-1.7,0-3-0.4-3.7-1.3
				c-0.8-0.9-1.2-2.2-1.2-3.9v-7.6h-2v-1.8l2.4-1.4l1.2-3.3h2.7v3.3h4.4v3.2h-4.4v7.6c0,0.6,0.2,1.1,0.5,1.3
				C1318.2,447.9,1318.6,448,1319.2,448z"/>
		</g>
	</g>
	<line class="st8" x1="113.1" y1="344.1" x2="999.8" y2="344.1"/>
	<g>
		<g>
			<line class="st9" x1="1049.6" y1="344.4" x2="1050.6" y2="344.4"/>
			<line class="st10" x1="1060.5" y1="344.4" x2="1246.4" y2="344.4"/>
			<line class="st9" x1="1251.4" y1="344.4" x2="1252.4" y2="344.4"/>
		</g>
	</g>
	<g>
		<g class="st2">
			<path class="st3" d="M364.8,443.5v7.9h-4.3v-20.5h6c2.8,0,4.8,0.5,6.2,1.5c1.3,1,2,2.6,2,4.6c0,1.2-0.3,2.3-1,3.2
				c-0.7,0.9-1.6,1.7-2.8,2.2c3.1,4.6,5.1,7.6,6,8.9H372l-4.9-7.9H364.8z M364.8,440h1.4c1.4,0,2.4-0.2,3-0.7c0.7-0.5,1-1.2,1-2.2
				c0-1-0.3-1.7-1-2.1c-0.7-0.4-1.7-0.6-3.1-0.6h-1.3V440z"/>
			<path class="st3" d="M393.3,443.5c0,2.5-0.7,4.5-2,6c-1.3,1.4-3.2,2.2-5.6,2.2c-1.5,0-2.8-0.3-4-1c-1.1-0.7-2-1.6-2.6-2.8
				c-0.6-1.2-0.9-2.7-0.9-4.3c0-2.6,0.7-4.5,2-6c1.3-1.4,3.2-2.1,5.6-2.1c1.5,0,2.8,0.3,4,1c1.1,0.7,2,1.6,2.6,2.8
				C392.9,440.5,393.3,441.9,393.3,443.5z M382.4,443.5c0,1.6,0.3,2.7,0.8,3.5c0.5,0.8,1.3,1.2,2.5,1.2c1.1,0,2-0.4,2.5-1.2
				c0.5-0.8,0.8-2,0.8-3.5c0-1.6-0.3-2.7-0.8-3.5c-0.5-0.8-1.3-1.2-2.5-1.2c-1.1,0-2,0.4-2.5,1.2C382.7,440.8,382.4,442,382.4,443.5
				z"/>
			<path class="st3" d="M407.9,451.4l-0.6-2h-0.2c-0.5,0.7-1.1,1.3-1.9,1.7c-0.8,0.4-1.8,0.6-2.9,0.6c-1.8,0-3.2-0.5-4.2-1.5
				c-0.9-1-1.4-2.4-1.4-4.3v-10.2h4.3v9.2c0,1.1,0.2,2,0.6,2.5c0.4,0.6,1,0.8,1.9,0.8c1.2,0,2.1-0.4,2.6-1.2c0.5-0.8,0.8-2.1,0.8-4
				v-7.4h4.3v15.7H407.9z"/>
			<path class="st3" d="M422.3,448.3c0.7,0,1.6-0.2,2.7-0.5v3.2c-1.1,0.5-2.4,0.7-3.9,0.7c-1.7,0-3-0.4-3.7-1.3
				c-0.8-0.9-1.2-2.2-1.2-3.9v-7.6h-2v-1.8l2.4-1.4l1.2-3.3h2.7v3.3h4.4v3.2h-4.4v7.6c0,0.6,0.2,1.1,0.5,1.3
				C421.2,448.1,421.7,448.3,422.3,448.3z"/>
			<path class="st3" d="M435.2,451.7c-2.5,0-4.5-0.7-5.9-2.1c-1.4-1.4-2.1-3.4-2.1-5.9c0-2.6,0.7-4.7,2-6.1c1.3-1.4,3.1-2.2,5.4-2.2
				c2.2,0,3.9,0.6,5.2,1.9c1.2,1.3,1.8,3,1.8,5.2v2.1h-10.1c0,1.2,0.4,2.2,1.1,2.8c0.7,0.7,1.6,1,2.8,1c0.9,0,1.8-0.1,2.7-0.3
				s1.7-0.5,2.6-0.9v3.3c-0.7,0.4-1.5,0.7-2.4,0.8C437.5,451.6,436.4,451.7,435.2,451.7z M434.6,438.5c-0.9,0-1.6,0.3-2.1,0.9
				c-0.5,0.6-0.8,1.4-0.9,2.4h6c0-1.1-0.3-1.9-0.8-2.4C436.2,438.8,435.5,438.5,434.6,438.5z"/>
			<path class="st3" d="M453.8,435.4c0.6,0,1.1,0,1.4,0.1l-0.3,4c-0.3-0.1-0.8-0.1-1.3-0.1c-1.4,0-2.4,0.4-3.2,1.1
				c-0.8,0.7-1.1,1.7-1.1,2.9v8h-4.3v-15.7h3.2l0.6,2.6h0.2c0.5-0.9,1.1-1.6,2-2.1C451.9,435.7,452.8,435.4,453.8,435.4z"/>
		</g>
		<g class="st2">
			<path class="st3" d="M348.3,477.5h-5.4v-3.1h5.4V469h3.1v5.5h5.4v3.1h-5.4v5.4h-3.1V477.5z"/>
			<path class="st3" d="M372.4,486.1h-4.3v-20.5h11.7v3.6h-7.5v5.3h7v3.5h-7V486.1z"/>
			<path class="st3" d="M383.3,466.4c0-1.4,0.8-2.1,2.3-2.1s2.3,0.7,2.3,2.1c0,0.7-0.2,1.2-0.6,1.5s-1,0.6-1.7,0.6
				C384.1,468.5,383.3,467.8,383.3,466.4z M387.8,486.1h-4.3v-15.7h4.3V486.1z"/>
			<path class="st3" d="M401,470.1c0.6,0,1.1,0,1.4,0.1l-0.3,4c-0.3-0.1-0.8-0.1-1.3-0.1c-1.4,0-2.4,0.4-3.2,1.1
				c-0.8,0.7-1.1,1.7-1.1,2.9v8h-4.3v-15.7h3.2l0.6,2.6h0.2c0.5-0.9,1.1-1.6,2-2.1S400.1,470.1,401,470.1z"/>
			<path class="st3" d="M412.4,486.4c-2.5,0-4.5-0.7-5.9-2.1c-1.4-1.4-2.1-3.4-2.1-5.9c0-2.6,0.7-4.7,2-6.1c1.3-1.4,3.1-2.2,5.4-2.2
				c2.2,0,3.9,0.6,5.2,1.9s1.8,3,1.8,5.2v2.1h-10.1c0,1.2,0.4,2.2,1.1,2.8c0.7,0.7,1.6,1,2.8,1c0.9,0,1.8-0.1,2.7-0.3
				c0.8-0.2,1.7-0.5,2.6-0.9v3.3c-0.7,0.4-1.5,0.7-2.4,0.8C414.7,486.3,413.6,486.4,412.4,486.4z M411.8,473.2
				c-0.9,0-1.6,0.3-2.1,0.9c-0.5,0.6-0.8,1.4-0.9,2.4h6c0-1.1-0.3-1.9-0.8-2.4C413.4,473.5,412.7,473.2,411.8,473.2z"/>
			<path class="st3" d="M435.1,486.1l-1.2-5.5l-1.6-6.9h-0.1l-2.9,12.4h-4.6l-4.5-15.7h4.3l1.8,6.9c0.3,1.2,0.6,3,0.9,5.1h0.1
				c0-0.7,0.2-1.8,0.5-3.4l0.2-1.2l1.9-7.5h4.7l1.8,7.5c0,0.2,0.1,0.5,0.2,0.9c0.1,0.4,0.2,0.8,0.2,1.3s0.1,0.9,0.2,1.3
				c0.1,0.4,0.1,0.8,0.1,1h0.1c0.1-0.7,0.2-1.6,0.4-2.8s0.4-2,0.5-2.4l1.9-6.9h4.2l-4.5,15.7H435.1z"/>
			<path class="st3" d="M456.8,486.1L456,484h-0.1c-0.7,0.9-1.5,1.5-2.2,1.9c-0.8,0.4-1.8,0.5-3,0.5c-1.5,0-2.7-0.4-3.6-1.3
				c-0.9-0.9-1.3-2.1-1.3-3.7c0-1.7,0.6-2.9,1.7-3.7s2.9-1.2,5.3-1.3l2.7-0.1v-0.7c0-1.6-0.8-2.4-2.4-2.4c-1.3,0-2.7,0.4-4.4,1.1
				l-1.4-2.9c1.8-0.9,3.8-1.4,6-1.4c2.1,0,3.7,0.5,4.8,1.4s1.7,2.3,1.7,4.2v10.4H456.8z M455.5,478.8l-1.7,0.1
				c-1.2,0-2.2,0.3-2.8,0.7c-0.6,0.4-0.9,1-0.9,1.9c0,1.2,0.7,1.8,2.1,1.8c1,0,1.8-0.3,2.4-0.9c0.6-0.6,0.9-1.3,0.9-2.3V478.8z"/>
			<path class="st3" d="M468.4,486.1h-4.3v-21.8h4.3V486.1z"/>
			<path class="st3" d="M477.2,486.1h-4.3v-21.8h4.3V486.1z"/>
		</g>
	</g>
	<g>
		<g class="st2">
			<path class="st3" d="M62.9,452v-20.5h4.3V452H62.9z"/>
			<path class="st3" d="M86.6,452h-4.3v-9.2c0-1.1-0.2-2-0.6-2.5c-0.4-0.6-1-0.8-1.9-0.8c-1.2,0-2.1,0.4-2.6,1.2
				c-0.5,0.8-0.8,2.1-0.8,4v7.4h-4.3v-15.7h3.3l0.6,2h0.2c0.5-0.8,1.1-1.3,2-1.7c0.8-0.4,1.8-0.6,2.9-0.6c1.8,0,3.2,0.5,4.1,1.5
				c0.9,1,1.4,2.4,1.4,4.3V452z"/>
			<path class="st3" d="M97.6,448.8c0.7,0,1.6-0.2,2.7-0.5v3.2c-1.1,0.5-2.4,0.7-3.9,0.7c-1.7,0-3-0.4-3.7-1.3
				c-0.8-0.9-1.2-2.2-1.2-3.9v-7.6h-2v-1.8l2.4-1.4L93,433h2.7v3.3h4.4v3.2h-4.4v7.6c0,0.6,0.2,1.1,0.5,1.3
				C96.6,448.7,97,448.8,97.6,448.8z"/>
			<path class="st3" d="M110.5,452.2c-2.5,0-4.5-0.7-5.9-2.1c-1.4-1.4-2.1-3.4-2.1-5.9c0-2.6,0.7-4.7,2-6.1c1.3-1.4,3.1-2.2,5.4-2.2
				c2.2,0,3.9,0.6,5.2,1.9c1.2,1.3,1.8,3,1.8,5.2v2.1h-10.1c0,1.2,0.4,2.2,1.1,2.8c0.7,0.7,1.6,1,2.8,1c0.9,0,1.8-0.1,2.7-0.3
				s1.7-0.5,2.6-0.9v3.3c-0.7,0.4-1.5,0.7-2.4,0.8C112.8,452.2,111.7,452.2,110.5,452.2z M109.9,439c-0.9,0-1.6,0.3-2.1,0.9
				c-0.5,0.6-0.8,1.4-0.9,2.4h6c0-1.1-0.3-1.9-0.8-2.4C111.5,439.3,110.8,439,109.9,439z"/>
			<path class="st3" d="M129.1,436c0.6,0,1.1,0,1.4,0.1l-0.3,4c-0.3-0.1-0.8-0.1-1.3-0.1c-1.4,0-2.4,0.4-3.2,1.1
				c-0.8,0.7-1.1,1.7-1.1,2.9v8h-4.3v-15.7h3.2l0.6,2.6h0.2c0.5-0.9,1.1-1.6,2-2.1C127.3,436.3,128.2,436,129.1,436z"/>
			<path class="st3" d="M147.9,452h-4.3v-9.2c0-1.1-0.2-2-0.6-2.5c-0.4-0.6-1-0.8-1.9-0.8c-1.2,0-2.1,0.4-2.6,1.2
				c-0.5,0.8-0.8,2.1-0.8,4v7.4h-4.3v-15.7h3.3l0.6,2h0.2c0.5-0.8,1.1-1.3,2-1.7c0.8-0.4,1.8-0.6,2.9-0.6c1.8,0,3.2,0.5,4.1,1.5
				c0.9,1,1.4,2.4,1.4,4.3V452z"/>
			<path class="st3" d="M159.4,452.2c-2.5,0-4.5-0.7-5.9-2.1c-1.4-1.4-2.1-3.4-2.1-5.9c0-2.6,0.7-4.7,2-6.1c1.3-1.4,3.1-2.2,5.4-2.2
				c2.2,0,3.9,0.6,5.2,1.9c1.2,1.3,1.8,3,1.8,5.2v2.1h-10.1c0,1.2,0.4,2.2,1.1,2.8c0.7,0.7,1.6,1,2.8,1c0.9,0,1.8-0.1,2.7-0.3
				s1.7-0.5,2.6-0.9v3.3c-0.7,0.4-1.5,0.7-2.4,0.8C161.6,452.2,160.6,452.2,159.4,452.2z M158.8,439c-0.9,0-1.6,0.3-2.1,0.9
				c-0.5,0.6-0.8,1.4-0.9,2.4h6c0-1.1-0.3-1.9-0.8-2.4C160.4,439.3,159.7,439,158.8,439z"/>
			<path class="st3" d="M175.8,448.8c0.7,0,1.6-0.2,2.7-0.5v3.2c-1.1,0.5-2.4,0.7-3.9,0.7c-1.7,0-3-0.4-3.7-1.3
				c-0.8-0.9-1.2-2.2-1.2-3.9v-7.6h-2v-1.8l2.4-1.4l1.2-3.3h2.7v3.3h4.4v3.2H174v7.6c0,0.6,0.2,1.1,0.5,1.3
				C174.8,448.7,175.3,448.8,175.8,448.8z"/>
		</g>
	</g>
	<g>
		<path class="st11" d="M487.1,374.4h-150c-2.8,0-5-2.2-5-5v-50c0-2.8,2.2-5,5-5h150c2.8,0,5,2.2,5,5v50
			C492.1,372.1,489.8,374.4,487.1,374.4z"/>
		<line class="st12" x1="431.9" y1="354.5" x2="352.2" y2="354.5"/>
		<line class="st12" x1="472.2" y1="344" x2="457.2" y2="344"/>
		<line class="st13" x1="412.1" y1="314.4" x2="412.1" y2="281.9"/>
		<circle class="st11" cx="412.1" cy="274.4" r="7.5"/>
		<line class="st12" x1="472.2" y1="334.1" x2="457.2" y2="334.1"/>
	</g>
	<g>
		<g class="st2">
			<path class="st3" d="M981.5,451.4l-1.5-4.9h-7.5l-1.5,4.9h-4.7l7.2-20.6h5.3l7.3,20.6H981.5z M979,442.9
				c-1.4-4.4-2.1-6.9-2.3-7.5s-0.3-1-0.4-1.4c-0.3,1.2-1.2,4.2-2.6,8.9H979z"/>
			<path class="st3" d="M994.8,451.7c-4.9,0-7.3-2.7-7.3-8c0-2.7,0.7-4.7,2-6.1c1.3-1.4,3.2-2.1,5.7-2.1c1.8,0,3.4,0.4,4.9,1.1
				l-1.3,3.3c-0.7-0.3-1.3-0.5-1.9-0.7c-0.6-0.2-1.2-0.3-1.7-0.3c-2.2,0-3.3,1.6-3.3,4.7c0,3.1,1.1,4.6,3.3,4.6
				c0.8,0,1.6-0.1,2.3-0.3c0.7-0.2,1.4-0.6,2.1-1v3.7c-0.7,0.4-1.4,0.7-2.1,0.9C996.8,451.6,995.9,451.7,994.8,451.7z"/>
			<path class="st3" d="M1009.6,451.7c-4.9,0-7.3-2.7-7.3-8c0-2.7,0.7-4.7,2-6.1s3.2-2.1,5.7-2.1c1.8,0,3.4,0.4,4.9,1.1l-1.3,3.3
				c-0.7-0.3-1.3-0.5-1.9-0.7s-1.2-0.3-1.7-0.3c-2.2,0-3.3,1.6-3.3,4.7c0,3.1,1.1,4.6,3.3,4.6c0.8,0,1.6-0.1,2.3-0.3
				c0.7-0.2,1.4-0.6,2.1-1v3.7c-0.7,0.4-1.4,0.7-2.1,0.9C1011.5,451.6,1010.6,451.7,1009.6,451.7z"/>
			<path class="st3" d="M1025,451.7c-2.5,0-4.5-0.7-5.9-2.1c-1.4-1.4-2.1-3.4-2.1-5.9c0-2.6,0.7-4.7,2-6.1c1.3-1.4,3.1-2.2,5.4-2.2
				c2.2,0,3.9,0.6,5.2,1.9c1.2,1.3,1.8,3,1.8,5.2v2.1h-10.1c0,1.2,0.4,2.2,1.1,2.8s1.6,1,2.8,1c0.9,0,1.8-0.1,2.7-0.3
				s1.7-0.5,2.6-0.9v3.3c-0.7,0.4-1.5,0.7-2.4,0.8C1027.3,451.6,1026.3,451.7,1025,451.7z M1024.4,438.5c-0.9,0-1.6,0.3-2.1,0.9
				c-0.5,0.6-0.8,1.4-0.9,2.4h6c0-1.1-0.3-1.9-0.8-2.4C1026.1,438.8,1025.3,438.5,1024.4,438.5z"/>
			<path class="st3" d="M1045.8,446.7c0,1.6-0.6,2.8-1.7,3.7c-1.1,0.8-2.8,1.3-5,1.3c-1.1,0-2.1-0.1-2.9-0.2
				c-0.8-0.2-1.6-0.4-2.3-0.7v-3.5c0.8,0.4,1.7,0.7,2.7,0.9c1,0.3,1.9,0.4,2.6,0.4c1.6,0,2.3-0.4,2.3-1.3c0-0.3-0.1-0.6-0.3-0.8
				c-0.2-0.2-0.6-0.4-1.1-0.7c-0.5-0.3-1.2-0.6-2-0.9c-1.2-0.5-2.1-1-2.7-1.4s-1-0.9-1.2-1.5s-0.4-1.2-0.4-2.1
				c0-1.4,0.5-2.5,1.6-3.2s2.6-1.1,4.6-1.1c1.9,0,3.7,0.4,5.5,1.2l-1.3,3.1c-0.8-0.3-1.5-0.6-2.2-0.8c-0.7-0.2-1.4-0.3-2.1-0.3
				c-1.3,0-1.9,0.3-1.9,1c0,0.4,0.2,0.7,0.6,1s1.3,0.7,2.7,1.2c1.2,0.5,2.1,1,2.7,1.4c0.6,0.4,1,0.9,1.3,1.5
				S1045.8,446,1045.8,446.7z"/>
			<path class="st3" d="M1060.1,446.7c0,1.6-0.6,2.8-1.7,3.7c-1.1,0.8-2.8,1.3-5,1.3c-1.1,0-2.1-0.1-2.9-0.2s-1.6-0.4-2.3-0.7v-3.5
				c0.8,0.4,1.7,0.7,2.7,0.9c1,0.3,1.9,0.4,2.6,0.4c1.6,0,2.3-0.4,2.3-1.3c0-0.3-0.1-0.6-0.3-0.8c-0.2-0.2-0.6-0.4-1.1-0.7
				c-0.5-0.3-1.2-0.6-2-0.9c-1.2-0.5-2.1-1-2.7-1.4s-1-0.9-1.2-1.5c-0.3-0.6-0.4-1.2-0.4-2.1c0-1.4,0.5-2.5,1.6-3.2s2.6-1.1,4.6-1.1
				c1.9,0,3.7,0.4,5.5,1.2l-1.3,3.1c-0.8-0.3-1.5-0.6-2.2-0.8c-0.7-0.2-1.4-0.3-2.1-0.3c-1.3,0-1.9,0.3-1.9,1c0,0.4,0.2,0.7,0.6,1
				s1.3,0.7,2.7,1.2c1.2,0.5,2.1,1,2.7,1.4s1,0.9,1.3,1.5C1060,445.3,1060.1,446,1060.1,446.7z"/>
		</g>
		<g class="st2">
			<path class="st3" d="M992.6,472c0,2.2-0.7,3.9-2.1,5.1c-1.4,1.2-3.3,1.8-5.9,1.8h-1.9v7.3h-4.3v-20.5h6.5c2.5,0,4.4,0.5,5.7,1.6
				C992,468.3,992.6,469.9,992.6,472z M982.8,475.2h1.4c1.3,0,2.3-0.3,3-0.8c0.7-0.5,1-1.3,1-2.3c0-1-0.3-1.8-0.8-2.3
				c-0.6-0.5-1.4-0.7-2.6-0.7h-2V475.2z"/>
			<path class="st3" d="M1010.4,478.2c0,2.5-0.7,4.5-2,6c-1.3,1.4-3.2,2.2-5.6,2.2c-1.5,0-2.8-0.3-4-1c-1.1-0.7-2-1.6-2.6-2.8
				c-0.6-1.2-0.9-2.7-0.9-4.3c0-2.6,0.7-4.6,2-6s3.2-2.1,5.6-2.1c1.5,0,2.8,0.3,4,1c1.1,0.7,2,1.6,2.6,2.8
				C1010.1,475.2,1010.4,476.6,1010.4,478.2z M999.5,478.2c0,1.6,0.3,2.7,0.8,3.5c0.5,0.8,1.3,1.2,2.5,1.2c1.1,0,2-0.4,2.5-1.2
				s0.8-2,0.8-3.5c0-1.6-0.3-2.7-0.8-3.5c-0.5-0.8-1.3-1.2-2.5-1.2c-1.1,0-2,0.4-2.5,1.2C999.8,475.5,999.5,476.7,999.5,478.2z"/>
			<path class="st3" d="M1013.7,466.4c0-1.4,0.8-2.1,2.3-2.1s2.3,0.7,2.3,2.1c0,0.7-0.2,1.2-0.6,1.5s-1,0.6-1.7,0.6
				C1014.5,468.5,1013.7,467.8,1013.7,466.4z M1018.2,486.1h-4.3v-15.7h4.3V486.1z"/>
			<path class="st3" d="M1037.1,486.1h-4.3v-9.2c0-1.1-0.2-2-0.6-2.5c-0.4-0.6-1-0.8-1.9-0.8c-1.2,0-2.1,0.4-2.6,1.2
				c-0.5,0.8-0.8,2.1-0.8,4v7.4h-4.3v-15.7h3.3l0.6,2h0.2c0.5-0.8,1.1-1.3,2-1.7c0.8-0.4,1.8-0.6,2.9-0.6c1.8,0,3.2,0.5,4.1,1.5
				c0.9,1,1.4,2.4,1.4,4.3V486.1z"/>
			<path class="st3" d="M1048.1,483c0.7,0,1.6-0.2,2.7-0.5v3.2c-1.1,0.5-2.4,0.7-3.9,0.7c-1.7,0-3-0.4-3.7-1.3
				c-0.8-0.9-1.2-2.2-1.2-3.9v-7.6h-2v-1.8l2.4-1.4l1.2-3.3h2.7v3.3h4.4v3.2h-4.4v7.6c0,0.6,0.2,1.1,0.5,1.3
				C1047.1,482.8,1047.6,483,1048.1,483z"/>
		</g>
	</g>
	<g>
		<path class="st11" d="M1037.4,374.4h-50c-2.8,0-5-2.2-5-5v-50c0-2.8,2.2-5,5-5h50c2.8,0,5,2.2,5,5v50
			C1042.4,372.1,1040.2,374.4,1037.4,374.4z"/>
		<line class="st12" x1="1022.5" y1="354.5" x2="1002.5" y2="354.5"/>
		<line class="st13" x1="1012.5" y1="314.4" x2="1012.5" y2="281.9"/>
		<circle class="st11" cx="1012.4" cy="274.4" r="7.5"/>
		<path class="st12" d="M1055.4,274.4c0-23.8-19.2-43-43-43"/>
		<path class="st12" d="M1037.4,274.4c0-13.8-11.2-25-25-25"/>
		<path class="st12" d="M1072.4,274.4c0-33.2-26.8-60-60-60"/>
	</g>
	<g>
		<path class="st14" d="M179.9,342.8c0,33.1-26.9,60-60,60s-60-26.9-60-60c0-33.1,26.9-60,60-60S179.9,309.7,179.9,342.8z"/>
		<path class="st13" d="M150.4,342.8c0,33.1-13.7,60-30.6,60s-30.6-26.9-30.6-60c0-33.1,13.7-60,30.6-60S150.4,309.7,150.4,342.8z"
			/>
		<line class="st13" x1="119.9" y1="282.8" x2="119.9" y2="402.8"/>
		<line class="st13" x1="59.9" y1="342.8" x2="179.9" y2="342.8"/>
		<line class="st13" x1="67.8" y1="313" x2="172" y2="313"/>
		<line class="st13" x1="67.3" y1="371.6" x2="172.6" y2="371.6"/>
	</g>
	<g>
		<path class="st11" d="M745,395.9h-90c-2.8,0-5-2.2-5-5v-90c0-2.8,2.2-5,5-5h90c2.8,0,5,2.2,5,5v90
			C750,393.7,747.8,395.9,745,395.9z"/>
		<line class="st12" x1="667.1" y1="329.1" x2="733.4" y2="329.1"/>
		<g>
			<path class="st12" d="M681.5,314.3l-14.2,14.2c-0.3,0.3-0.3,0.9,0,1.2l14.2,14.2"/>
		</g>
		<line class="st12" x1="732.9" y1="362.4" x2="666.6" y2="362.4"/>
		<g>
			<path class="st12" d="M718.5,377.1l14.2-14.2c0.3-0.3,0.3-0.9,0-1.2l-14.2-14.2"/>
		</g>
	</g>
	<g>
		<path class="st11" d="M1237.1,218.4L1184.8,359c-1,2.6,0.4,5.5,2.9,6.4l93.8,34.8c2.6,1,5.5-0.4,6.4-3l52.2-140.6
			c1-2.6-0.4-5.5-2.9-6.4l-93.7-34.8C1240.9,214.5,1238,215.8,1237.1,218.4z"/>
		<line class="st12" x1="1226.2" y1="304.9" x2="1281.1" y2="272"/>
		<line class="st13" x1="1335" y1="270.7" x2="1231.8" y2="232.4"/>
		<line class="st13" x1="1293.2" y1="383.2" x2="1190.1" y2="344.9"/>
		<line class="st12" x1="1296.3" y1="245.5" x2="1277.6" y2="238.6"/>
		<line class="st12" x1="1247.5" y1="376.9" x2="1228.8" y2="369.9"/>
	</g>
</g>
</svg>
